<svg width="25" height="26" viewBox="0 0 25 26" fill="none" xmlns="http://www.w3.org/2000/svg">
<path d="M21.875 6.75V19.25C21.875 20.1125 21.175 20.8125 20.3125 20.8125H3.90625C3.90625 21.675 4.60625 22.375 5.46875 22.375H21.875C22.7375 22.375 23.4375 21.675 23.4375 20.8125V8.3125C23.4375 7.45 22.7375 6.75 21.875 6.75ZM21.0938 18.4688V5.96875C21.0938 5.10625 20.3937 4.40625 19.5312 4.40625H3.125C2.2625 4.40625 1.5625 5.10625 1.5625 5.96875V18.4688C1.5625 19.3313 2.2625 20.0312 3.125 20.0312H19.5312C20.3937 20.0312 21.0938 19.3313 21.0938 18.4688ZM3.125 5.96875H19.5312V18.4688H3.125V5.96875ZM12.2086 14.0242L9.87422 11.5391L7.53906 15.5266L5.7875 13.6961L3.88984 17.7031H18.7766L15.4195 8.91797L12.2086 14.0242ZM6.25 11.4375C7.1125 11.4375 7.8125 10.7375 7.8125 9.875C7.8125 9.0125 7.1125 8.3125 6.25 8.3125C5.3875 8.3125 4.6875 9.0125 4.6875 9.875C4.6875 10.7375 5.3875 11.4375 6.25 11.4375Z" fill="#F64740"/>
</svg>
