<svg width="303" height="174" viewBox="0 0 303 174" fill="none" xmlns="http://www.w3.org/2000/svg">
<rect width="303" height="174" rx="16" fill="#EFEFEF"/>
<path d="M96.7812 97.625C96.0933 97.625 95.4336 97.3517 94.9472 96.8653C94.4608 96.3789 94.1875 95.7192 94.1875 95.0312V37.9688C94.1875 37.2808 94.4608 36.6211 94.9472 36.1347C95.4336 35.6483 96.0933 35.375 96.7812 35.375H164.219C164.907 35.375 165.566 35.6483 166.053 36.1347C166.539 36.6211 166.812 37.2808 166.812 37.9688V95.0312C166.812 95.7192 166.539 96.3789 166.053 96.8653C165.566 97.3517 164.907 97.625 164.219 97.625H96.7812ZM122.356 79.1056L116.769 73.5187C116.282 73.0324 115.623 72.7593 114.935 72.7593C114.247 72.7593 113.588 73.0324 113.101 73.5187L99.375 87.2552H162.491L142.867 63.7039C142.624 63.4111 142.319 63.1755 141.974 63.0138C141.629 62.8521 141.253 62.7682 140.872 62.7682C140.492 62.7682 140.116 62.8521 139.771 63.0138C139.426 63.1755 139.121 63.4111 138.878 63.7039L126.184 78.9344C125.953 79.2114 125.667 79.4372 125.344 79.5974C125.021 79.7576 124.668 79.8487 124.308 79.8648C123.947 79.8809 123.588 79.8217 123.252 79.691C122.915 79.5603 122.61 79.3609 122.356 79.1056ZM109.75 56.125C109.75 57.1472 109.952 58.1593 110.344 59.1035C110.735 60.0478 111.309 60.9057 112.032 61.6283C112.755 62.3508 113.613 62.9239 114.557 63.3147C115.502 63.7056 116.514 63.9066 117.536 63.9062C118.559 63.9059 119.571 63.7042 120.515 63.3127C121.459 62.9213 122.317 62.3476 123.04 61.6246C123.762 60.9015 124.335 60.0433 124.726 59.0988C125.117 58.1542 125.318 57.142 125.318 56.1198C125.317 54.0554 124.496 52.0758 123.036 50.6166C121.576 49.1573 119.596 48.3379 117.531 48.3386C115.467 48.3393 113.487 49.16 112.028 50.6202C110.569 52.0805 109.749 54.0606 109.75 56.125Z" fill="#E2E2E2"/>
<path d="M138.781 138.625C138.093 138.625 137.434 138.352 136.947 137.865C136.461 137.379 136.188 136.719 136.188 136.031V78.9688C136.188 78.2808 136.461 77.6211 136.947 77.1347C137.434 76.6483 138.093 76.375 138.781 76.375H206.219C206.907 76.375 207.566 76.6483 208.053 77.1347C208.539 77.6211 208.812 78.2808 208.812 78.9688V136.031C208.812 136.719 208.539 137.379 208.053 137.865C207.566 138.352 206.907 138.625 206.219 138.625H138.781ZM164.356 120.106L158.769 114.519C158.282 114.032 157.623 113.759 156.935 113.759C156.247 113.759 155.588 114.032 155.101 114.519L141.375 128.255H204.491L184.867 104.704C184.624 104.411 184.319 104.176 183.974 104.014C183.629 103.852 183.253 103.768 182.872 103.768C182.492 103.768 182.116 103.852 181.771 104.014C181.426 104.176 181.121 104.411 180.878 104.704L168.184 119.934C167.953 120.211 167.667 120.437 167.344 120.597C167.021 120.758 166.668 120.849 166.308 120.865C165.947 120.881 165.588 120.822 165.252 120.691C164.915 120.56 164.61 120.361 164.356 120.106ZM151.75 97.125C151.75 98.1472 151.952 99.1593 152.344 100.104C152.735 101.048 153.309 101.906 154.032 102.628C154.755 103.351 155.613 103.924 156.557 104.315C157.502 104.706 158.514 104.907 159.536 104.906C160.559 104.906 161.571 104.704 162.515 104.313C163.459 103.921 164.317 103.348 165.04 102.625C165.762 101.902 166.335 101.043 166.726 100.099C167.117 99.1542 167.318 98.142 167.318 97.1198C167.317 95.0554 166.496 93.0758 165.036 91.6166C163.576 90.1573 161.596 89.3379 159.531 89.3386C157.467 89.3393 155.487 90.16 154.028 91.6202C152.569 93.0805 151.749 95.0606 151.75 97.125Z" fill="#E2E2E2"/>
</svg>
