<svg width="21" height="22" viewBox="0 0 21 22" fill="none" xmlns="http://www.w3.org/2000/svg">
<path d="M10.5 3.125C9.46584 3.125 8.44181 3.32869 7.48637 3.72445C6.53093 4.1202 5.6628 4.70027 4.93153 5.43153C4.20027 6.1628 3.6202 7.03093 3.22445 7.98637C2.82869 8.94181 2.625 9.96584 2.625 11C2.625 12.0342 2.82869 13.0582 3.22445 14.0136C3.6202 14.9691 4.20027 15.8372 4.93153 16.5685C5.6628 17.2997 6.53093 17.8798 7.48637 18.2756C8.44181 18.6713 9.46584 18.875 10.5 18.875C12.5886 18.875 14.5916 18.0453 16.0685 16.5685C17.5453 15.0916 18.375 13.0886 18.375 11C18.375 8.91142 17.5453 6.90838 16.0685 5.43153C14.5916 3.95468 12.5886 3.125 10.5 3.125ZM10.5 1.8125C12.9367 1.8125 15.2736 2.78047 16.9965 4.50346C18.7195 6.22645 19.6875 8.56332 19.6875 11C19.6875 13.4367 18.7195 15.7736 16.9965 17.4965C15.2736 19.2195 12.9367 20.1875 10.5 20.1875C8.06332 20.1875 5.72645 19.2195 4.00346 17.4965C2.28047 15.7736 1.3125 13.4367 1.3125 11C1.3125 8.56332 2.28047 6.22645 4.00346 4.50346C5.72645 2.78047 8.06332 1.8125 10.5 1.8125Z" fill="#F64740"/>
<path d="M12.6549 6C13.5301 6 13.9678 6.46685 13.9678 7.40056C13.9678 8.33427 13.5301 8.80112 12.6549 8.80112C11.7796 8.80112 11.342 8.33427 11.342 7.40056C11.342 6.46685 11.7796 6 12.6549 6ZM3.92952 17L3 16.0084L6.80865 11.9468C7.13831 11.5949 7.5743 11.3793 8.03902 11.3383C8.50374 11.2973 8.96704 11.4335 9.34643 11.7227L12.1822 13.8824C12.3034 13.9745 12.4504 14.02 12.599 14.0113C12.7476 14.0027 12.8891 13.9404 13.0002 13.8347L18.1256 8.94118L19 9.98599L13.8759 14.8782C13.5425 15.1964 13.1174 15.3841 12.6707 15.4104C12.224 15.4366 11.7822 15.2998 11.4181 15.0224L8.58234 12.8613C8.45592 12.7656 8.3018 12.7206 8.14729 12.7344C7.99277 12.7483 7.84784 12.82 7.73816 12.937L3.92952 16.9986V17Z" fill="#F77570"/>
</svg>
