<svg width="342" height="69" viewBox="0 0 342 69" fill="none" xmlns="http://www.w3.org/2000/svg">
<ellipse cx="18.9996" cy="19" rx="14.44" ry="14.82" fill="#E6E6E6"/>
<path d="M18.9998 19.5106C17.9169 19.5118 16.8579 19.1917 15.9568 18.5909C15.0558 17.9901 14.3532 17.1355 13.938 16.1353C13.5227 15.1351 13.4134 14.0342 13.624 12.9719C13.8346 11.9096 14.3555 10.9336 15.1208 10.1674C15.8862 9.4012 16.8616 8.87923 17.9237 8.66752C18.9858 8.4558 20.0868 8.56387 21.0875 8.97804C22.0881 9.3922 22.9435 10.0939 23.5453 10.9942C24.1471 11.8946 24.4683 12.9533 24.4683 14.0363C24.4667 15.4866 23.8903 16.8773 22.8652 17.9034C21.8402 18.9295 20.4502 19.5075 18.9998 19.5106ZM18.9998 10.3491C18.2689 10.3479 17.5541 10.5637 16.9458 10.969C16.3376 11.3744 15.8633 11.9511 15.583 12.6262C15.3028 13.3012 15.2292 14.0443 15.3715 14.7612C15.5138 15.4782 15.8656 16.1368 16.3825 16.6536C16.8993 17.1705 17.5579 17.5223 18.2749 17.6646C18.9918 17.807 19.7349 17.7333 20.41 17.4531C21.085 17.1728 21.6618 16.6985 22.0671 16.0903C22.4725 15.482 22.6882 14.7672 22.687 14.0363C22.687 13.0584 22.2986 12.1205 21.6071 11.429C20.9156 10.7375 19.9777 10.3491 18.9998 10.3491Z" fill="#D4D4D4"/>
<path d="M19.0003 33.63C15.7229 33.6269 12.541 32.5252 9.96344 30.5009C9.86715 30.4246 9.78747 30.3294 9.72927 30.2212C9.67108 30.1129 9.63559 29.994 9.625 29.8716C9.625 29.7766 9.625 29.6875 9.625 29.5925C9.625 28.3605 9.86765 27.1406 10.3391 26.0024C10.8106 24.8643 11.5016 23.8301 12.3727 22.9589C13.2438 22.0878 14.278 21.3968 15.4162 20.9253C16.5544 20.4539 17.7743 20.2112 19.0062 20.2112C20.2382 20.2112 21.4581 20.4539 22.5963 20.9253C23.7345 21.3968 24.7687 22.0878 25.6398 22.9589C26.5109 23.8301 27.2019 24.8643 27.6734 26.0024C28.1448 27.1406 28.3875 28.3605 28.3875 29.5925C28.3875 29.6875 28.3875 29.7766 28.3875 29.8716C28.3769 29.994 28.3414 30.1129 28.2832 30.2212C28.225 30.3294 28.1453 30.4246 28.0491 30.5009C25.4683 32.5277 22.2818 33.6296 19.0003 33.63ZM11.4062 29.3609C13.6085 30.9768 16.2688 31.8481 19.0003 31.8481C21.7318 31.8481 24.3921 30.9768 26.5944 29.3609C26.5168 27.3988 25.6827 25.5429 24.2671 24.1821C22.8514 22.8213 20.964 22.0613 19.0003 22.0613C17.0367 22.0613 15.1492 22.8213 13.7336 24.1821C12.3179 25.5429 11.4839 27.3988 11.4062 29.3609Z" fill="#D4D4D4"/>
<path d="M9.96744 30.0259C10.0945 30.0541 10.1877 30.3232 10.3164 30.3934C10.3893 30.4332 10.5148 30.5497 10.5772 30.6052C10.6702 30.6878 10.7899 30.7098 10.8974 30.7576C11.0595 30.8297 11.2566 30.9207 11.4072 31.0083C11.6702 31.1612 11.7952 31.4159 12.0475 31.5808C12.1874 31.6723 12.344 31.7134 12.4828 31.8095C12.619 31.9038 12.7434 31.9942 12.8639 32.0974C13.1306 32.326 13.5641 32.3793 13.8836 32.4955C14.2494 32.6285 14.6484 32.7522 14.9982 32.9223C15.2319 33.0361 15.4879 33.1162 15.7299 33.2103C15.8974 33.2754 16.0987 33.2624 16.2719 33.3119C16.4209 33.3545 16.5909 33.3185 16.7378 33.3644C16.9441 33.4289 17.1766 33.4407 17.3916 33.4407C17.9777 33.4407 18.5717 33.5016 19.16 33.5016C19.7127 33.5016 20.302 33.6069 20.8521 33.5254C21.8597 33.3761 22.854 33.2303 23.7926 32.8173C24.202 32.6372 24.6218 32.4731 25.0274 32.2956C25.351 32.1541 25.6896 32.0125 25.9743 31.801C26.0528 31.7427 26.163 31.714 26.2301 31.6418C26.2933 31.5737 26.3586 31.4993 26.4316 31.4419C26.5621 31.3394 26.71 31.2485 26.8517 31.154C26.9357 31.098 27.0219 31.0503 27.1007 30.9863C27.1981 30.9072 27.2214 30.798 27.3446 30.7441C27.4728 30.688 27.6258 30.6325 27.7427 30.5594C27.8397 30.4988 28.1816 30.2914 28.0933 30.1326C27.9859 29.9392 28.0171 29.7784 28.0171 29.5838C28.0171 29.462 27.9944 29.4161 27.8579 29.4161C27.7128 29.4161 27.4687 29.3695 27.3328 29.4313C27.1824 29.4997 26.7798 29.2194 26.7975 29.538C26.8108 29.7769 27.1087 29.9376 27.2684 30.0682C27.317 30.108 27.3831 30.0871 27.2786 30.1309C27.1337 30.1915 27.0087 30.2656 26.8517 30.2935C26.6251 30.3338 26.6379 30.2197 26.5672 30.0581C26.5418 30.0001 26.5162 29.9512 26.4469 29.9666C26.3456 29.9891 26.3986 29.9785 26.4164 29.8429C26.4552 29.5483 26.4675 29.7631 26.3165 29.8734C26.1674 29.9823 25.9665 30.0571 25.8371 30.1766C25.7191 30.2856 25.5646 30.3611 25.4323 30.4527C25.3015 30.5433 25.1186 30.5947 24.9987 30.6966C24.8584 30.8158 24.6676 30.8682 24.5261 30.988C24.3868 31.1058 24.2601 31.1714 24.084 31.2217C23.9047 31.273 23.787 31.3674 23.5928 31.3674C23.4104 31.3674 23.228 31.3674 23.0456 31.3674C22.8878 31.3674 22.7445 31.4505 22.59 31.4589C22.3513 31.4718 22.1086 31.5511 21.8701 31.5791C21.2409 31.6532 20.5987 31.607 19.9679 31.6791C19.5444 31.7275 19.1192 31.7333 18.6925 31.7333C18.3093 31.7333 17.9241 31.7471 17.5423 31.7096C17.1347 31.6695 16.7468 31.4626 16.3634 31.3301C16.0355 31.2168 15.7221 31.1065 15.381 31.0337C15.0758 30.9686 14.7314 31.0253 14.4426 30.905C14.1413 30.7794 13.8458 30.6485 13.5499 30.512C13.2088 30.3546 12.8741 30.1452 12.5285 29.9971C12.1869 29.8507 12.049 29.4522 11.7358 29.2874C11.525 29.1764 11.2488 29.1112 11.0109 29.1112C10.8307 29.1112 10.6506 29.1112 10.4705 29.1112C10.3613 29.1112 10.0878 29.0575 10.0047 29.118C9.98394 29.1331 9.91286 29.1392 9.90816 29.1603C9.89226 29.2318 9.87598 29.2961 9.87598 29.3703C9.87598 29.5315 9.89945 29.6295 10.0894 29.6295C10.4004 29.6295 10.7799 29.4412 11.0227 29.7379C11.0826 29.8111 11.1402 29.8718 11.2175 29.9276C11.3108 29.995 11.3044 30.0436 11.37 30.1173C11.406 30.1579 11.4048 30.2422 11.4462 30.141C11.4999 30.0098 11.5252 29.8705 11.5834 29.7396C11.5864 29.7328 11.6145 29.7071 11.6223 29.7227C11.6246 29.7272 11.3809 29.8086 11.37 29.8124C11.2825 29.8433 11.0703 29.9279 11.0109 30.0022C10.9109 30.1271 11.7324 30.4198 11.8205 30.4459C11.8487 30.4543 11.9201 30.4942 11.9137 30.4493C11.8895 30.2801 11.4786 30.1817 11.3395 30.1817C10.9516 30.1817 11.1084 30.6076 11.4242 30.5374C11.773 30.4599 11.0989 30.0171 11.0989 30.2918C11.0989 30.6557 11.5511 30.8402 11.8375 30.9372C11.9665 30.9808 12.2218 31.094 12.3609 31.0168C12.4341 30.9761 12.5622 31.0015 12.6437 31.0015C12.7883 31.0015 12.7389 30.9349 12.62 30.9101C12.4403 30.8725 12.3538 31.0758 12.3202 31.2268C12.2793 31.411 12.5531 30.918 12.6014 30.7356C12.6789 30.4427 12.315 30.5909 12.3896 30.7508C12.4536 30.8879 12.7288 30.9738 12.8639 31.0252C12.9451 31.0561 12.9609 30.8978 12.9249 30.9168C12.826 30.9692 12.8639 31.2174 12.8639 31.303C12.8639 31.4686 12.8912 31.5614 13.0655 31.5944C13.2674 31.6326 13.5462 31.5484 13.7108 31.4284C13.7924 31.3689 13.7853 31.3065 13.8328 31.2387C13.8798 31.1716 13.6919 31.1925 13.6719 31.2031C13.5193 31.2839 13.4217 31.454 13.4585 31.6232C13.4829 31.7355 13.2255 31.5163 13.1858 31.4927C13.1213 31.4544 13.1751 31.5031 13.1891 31.5131C13.2841 31.5805 13.3944 31.6212 13.5059 31.652C13.6442 31.6902 14.2233 31.7956 14.1394 31.4741C14.0979 31.3152 13.9366 31.3632 13.8904 31.4894C13.7982 31.7412 13.9251 31.969 14.1546 32.072C14.3985 32.1815 14.5491 32.0159 14.6289 31.7942C14.7211 31.5381 14.6785 31.4446 14.3918 31.4606C14.2206 31.4701 14.1134 31.7032 14.1953 31.8552C14.3582 32.1578 14.8374 31.8704 14.9846 31.7096C15.1683 31.509 15.0878 31.1534 14.7678 31.32C14.5814 31.417 14.4587 31.8293 14.6391 31.9806C14.8484 32.1561 15.4068 32.1205 15.6401 32.0348C15.8507 31.9574 15.7923 31.7705 15.5809 31.7705C15.4119 31.7705 15.3048 32.0999 15.3234 32.238C15.3581 32.4966 15.7523 32.2604 15.8451 32.1838C16.6402 31.5279 14.5143 31.6392 14.9711 32.2482C15.2102 32.567 15.8391 32.3412 16.0687 32.1229C16.1653 32.031 16.3198 31.8107 16.2652 31.6621C16.2252 31.5533 16.0613 31.6504 16.023 31.7011C15.9208 31.8362 15.6137 32.5438 15.8248 32.6649C15.9612 32.7432 16.1374 32.6118 16.2482 32.548C16.4793 32.4151 16.7239 32.2925 16.9359 32.1296C17.2754 31.8688 16.8495 32.0354 16.6869 32.1076C16.3911 32.2391 16.1692 32.4431 16.0043 32.7225C15.7637 33.1303 16.2353 32.8741 16.4193 32.775C16.6299 32.6616 17.1968 32.4048 17.1172 32.072C17.0767 31.9031 16.835 31.8493 16.7259 31.9806C16.5404 32.2038 16.629 32.6353 16.8953 32.7564C17.2809 32.9316 17.7584 32.7751 17.9116 32.3769C18.0998 31.8876 17.6299 31.8607 17.312 32.0856C17.1155 32.2246 16.9492 32.4216 16.8563 32.6446C16.8024 32.7739 16.7186 33.0787 16.8885 33.1697C17.0402 33.2508 17.318 33.0353 17.4339 32.9681C17.5818 32.8824 17.7888 32.7858 17.8811 32.631C17.9526 32.5111 17.7422 32.6257 17.7253 32.6446C17.5792 32.8076 17.4971 33.06 17.7879 33.0765C18.1247 33.0956 18.4137 32.8845 18.6569 32.675C18.7763 32.5722 18.9821 32.3801 18.9821 32.2008C18.9821 32.1142 18.8501 32.1578 18.8127 32.1754C18.6077 32.2719 18.3978 32.4608 18.2809 32.6547C18.2143 32.7651 18.1021 33.041 18.2266 33.1527C18.3658 33.2775 18.6934 33.1041 18.8127 33.0308C19.0743 32.8699 19.232 32.6154 19.3175 32.3261C19.3356 32.2648 19.4312 32.0213 19.3378 31.967C19.0913 31.8237 18.949 32.4086 18.9381 32.5463C18.8937 33.1037 19.9486 32.821 20.0391 32.4074C20.0625 32.3002 20.0236 32.2227 19.9069 32.2584C19.7547 32.3049 19.6935 32.5729 19.6935 32.7089C19.6935 32.8706 19.9449 32.7879 20.0289 32.7496C20.1639 32.688 20.2627 32.5858 20.3744 32.4921C20.412 32.4606 20.5437 32.4074 20.4947 32.4074C20.3062 32.4074 20.0579 32.6246 20.017 32.797C19.962 33.0295 20.2045 32.9884 20.3643 32.9342C20.6848 32.8255 20.9828 32.6786 21.3128 32.5937C21.3771 32.5772 21.5841 32.5634 21.6381 32.5192C21.9091 32.2975 22.1628 32.1946 22.5104 32.1161C22.6084 32.094 22.7018 32.0801 22.7729 32.1601C22.8404 32.236 22.3652 32.3401 22.319 32.3566C21.8867 32.511 21.4655 32.525 21.0147 32.4413C20.8893 32.418 20.759 32.3902 20.6387 32.3464C20.5771 32.3241 20.7697 32.3431 20.8352 32.3431C21.0051 32.3431 21.3759 32.4173 21.5178 32.3109C21.6083 32.243 21.4463 32.2905 21.4246 32.3024C21.266 32.3896 21.1285 32.5066 20.9622 32.5819C20.8871 32.6159 20.6403 32.767 20.6014 32.6547C20.5454 32.4927 20.7968 32.3845 20.9097 32.3058C21.181 32.1168 21.4886 31.941 21.8159 31.8756C22.0332 31.8321 22.2607 31.8263 22.4816 31.8247C22.5698 31.8241 22.6993 31.8015 22.7865 31.8264C22.8324 31.8396 22.7755 31.896 22.7628 31.906C22.5163 32.1008 22.2038 32.2519 21.9192 32.3786C21.5846 32.5276 21.2621 32.5798 20.8995 32.587C20.7229 32.5905 20.6569 32.6194 20.6472 32.4091C20.6433 32.3264 20.6406 31.8508 20.8132 31.8789C20.9312 31.8982 20.985 32.0462 21.0808 32.1178C21.4681 32.4069 21.942 32.5484 22.4206 32.587C22.9306 32.6281 23.3144 32.4052 23.7249 32.1533C23.8252 32.0918 23.9179 32.0145 24.023 31.9619C24.0555 31.9457 24.2971 31.8296 24.2551 31.8112C24.0072 31.7028 23.6356 31.9908 23.42 32.0686C22.9523 32.2374 22.4571 32.3228 21.987 32.4887C21.7188 32.5834 21.5951 32.8388 21.3332 32.9291C21.2427 32.9603 21.1327 33.0149 21.0689 33.0867C21.0517 33.106 21.4534 32.9608 21.5127 32.9376C21.8655 32.7995 22.2454 32.7405 22.5561 32.5124C22.6876 32.416 22.835 32.354 22.9694 32.2634C23.0921 32.1808 23.197 32.0852 23.3319 32.0212C23.7614 31.8175 24.1425 31.5167 24.5735 31.3081C24.9969 31.1032 25.4579 31.0222 25.8981 30.866C26.0546 30.8105 26.2151 30.7926 26.3774 30.7644C26.5644 30.7319 26.519 30.7881 26.4012 30.8863C26.2596 31.0043 26.1364 31.1656 25.9591 31.2285C25.7706 31.2954 25.6059 31.3246 25.4272 31.4267C25.2358 31.5361 25.0538 31.5952 24.8462 31.6486C24.7807 31.6654 24.5676 31.8636 24.6328 31.7333" stroke="#E6E6E6" stroke-linecap="round"/>
<rect x="45" y="12" width="120" height="14" rx="7" fill="#F1F1F1"/>
<rect x="5" y="44" width="331" height="14" rx="7" fill="#F1F1F1"/>
<rect x="184" y="14" width="68" height="11" rx="5.5" fill="#F1F1F1"/>
</svg>
