<svg width="382" height="417" viewBox="0 0 382 417" fill="none" xmlns="http://www.w3.org/2000/svg">
<path d="M107.3 330.2L89 325.5V322.3C89 319.3 89.3 319 92.2 319C93.9 319 103.6 321 113.7 323.5C123.7 326 132.9 328 134 328C135.1 328 140 324.4 144.9 320C151.2 314.4 154.6 312 156.4 312C158.6 312 159 311.6 159 309C159 306.2 159.3 306 162.5 306C165.8 306 166 306.2 166 309.5C166 312.7 165.8 313 163 313C160.3 313 160 313.3 160 315.9C160 318.4 158.5 320.2 150.9 326.9L141.8 335H133.6C127.3 334.9 121.5 333.9 107.3 330.2Z" fill="#A81A23"/>
<path d="M216.7 317.6C209.9 313.7 208.1 312.2 197.9 300.8C191.2 293.3 190 291.5 190 288.5C190 285.4 190.3 285 192.5 285C194.4 285 195 284.5 195 282.7C195 280.8 196.1 279.9 201.5 277.7C205.1 276.2 209.4 275 211 275C213.7 275 214 275.3 214 278.3C214 281.3 213.5 281.8 208.5 284.3C205.4 285.8 202.2 287 201.2 287C200.3 287 202.9 289.2 207 291.9C211.1 294.5 218.4 300.5 223.3 305.1C231.2 312.7 232 313.8 232 317.3V321L227.3 320.9C223.8 320.9 220.9 320 216.7 317.6Z" fill="#A81A23"/>
<path d="M170 301.8C170 299.2 170.9 297.8 174 295.3C176.1 293.5 178.3 292 178.9 292C179.5 292 180 291.6 180 291C180 290.5 181.6 290 183.5 290C186.8 290 187 290.2 187 293.5C187 295.4 186.6 297 186.2 297C185.7 297 183.4 298.8 181.1 301C177.9 304.1 176.1 305 173.5 305C170.2 305 170 304.8 170 301.8Z" fill="#A81A23"/>
<path d="M224 281.5V278H229.5H235V281.5V285H229.5H224V281.5Z" fill="#A81A23"/>
<path d="M155 282.8C146.5 281 115.5 274 102.5 271C95.4003 269.3 85.5003 267.1 80.5003 266C75.6003 265 63.6003 262.3 54.0003 260C44.4003 257.8 33.1003 255.2 29.0003 254.3C20.4003 252.5 16.0003 250.6 16.0003 248.5C16.0003 247.7 14.4003 246.8 11.8003 246.3C9.5003 245.8 7.5003 244.9 7.3003 244.3C6.7003 242.5 15.8003 238.3 34.5003 231.8C43.8003 228.5 51.9003 225.2 52.3003 224.4C52.7003 223.6 53.8003 223 54.7003 223C57.0003 223 66.7003 228.8 68.4003 231.1C69.9003 233.3 71.1003 233 111.8 220.4C127.9 215.5 135.5 214.7 136.5 217.9C136.8 219 137 221.4 136.8 223.4C136.3 231.2 139.8 229.3 143.4 219.9C144.9 215.8 147.8 208.8 149.7 204.2C151.6 199.6 153 195.6 152.7 195.3C151.6 194.2 145 198.9 145 200.8C145 204.5 128 207 126.6 203.5C126.3 202.7 126.4 202 126.9 202C127.3 202 128.2 200.9 128.8 199.6C129.7 197.5 132.4 196.3 145.8 192.1C154.6 189.3 162.7 187 163.9 187H166V230.3C166 254 166.3 275.9 166.6 278.8L167.3 284L163.4 283.9C161.3 283.8 157.5 283.4 155 282.8Z" fill="#A81A23"/>
<path d="M327 249.5C327 245.2 326.9 245 324 245C321.3 245 321 244.7 321 241.6C321 238.6 321.6 237.8 325.8 235.2C334.3 229.8 341 226.8 345.5 226.2C349.4 225.8 350 226 350 227.6C350 229.1 347.8 230.3 340.7 233L331.5 236.6L331.2 245.3C330.9 253.2 330.7 254 329 254C327.3 254 327 253.3 327 249.5Z" fill="#A81A23"/>
<path d="M328 184.5C328 181.2 328.2 181 331.5 181C334.8 181 335 181.2 335 184.5C335 187.8 334.8 188 331.5 188C328.2 188 328 187.8 328 184.5Z" fill="#A81A23"/>
<path d="M174.7 166.6C172.7 164.6 164.5 145.7 161.4 135.7C157.2 122.5 157 121.7 157 115.2C157 109.9 156.1 106.8 150.6 93.3C146.5 83.4 143.6 77.4 142.6 77.2C141.4 76.9 141 75.6 141 72C141 69.3 140.6 66.8 140 66.5C139.5 66.2 139 64.3 139 62.4C139 59.8 138.6 59 137.3 59C136.3 59 130 57.5 123.3 55.8L111 52.5V49.1V45.7L115.8 46.3C118.4 46.6 125.6 48.1 131.8 49.5C142.2 52 143 52.3 143 54.6C143 56 143.6 57 144.4 57C145.3 57 147.6 61.5 150.6 69.3C160.6 95.3 180.1 143.4 182.9 148.9C185.3 153.5 185.5 155.9 183.8 162.9C182.7 167.7 182.5 168 179.4 168C177.6 168 175.5 167.4 174.7 166.6Z" fill="#A81A23"/>
<path d="M104.5 49C102.5 45.2 102.6 45 105.5 45C107.7 45 108 45.4 108 48.5C108 52.8 106.6 53 104.5 49Z" fill="#A81A23"/>
<path d="M189.6 415.1C189.3 414.6 189.1 387.6 189.1 355.1C189.2 322.5 189 295.7 188.7 295.4C188.4 295.1 187.1 296 185.9 297.4C184.7 298.8 183.1 300 182.4 300C181.8 300 180.1 301.5 178.7 303.3C175.9 307 156.6 323.3 154.5 323.8C153.8 324 152.4 325.2 151.6 326.6C150.6 328.1 149 329 147.5 329C145.9 329 145 329.6 145 330.5C145 331.3 144.1 332.9 143 334C139 338 124.9 335.7 84.2998 324.4C82.4998 323.9 81.9998 323 81.9998 320.4C81.9998 317.3 82.2998 317 84.9998 317C89.1998 317 114.4 323 114.8 324.1C115 324.6 116.1 325 117.3 325C118.5 325 123.3 325.7 127.9 326.7C135.7 328.2 136.3 328.2 137.2 326.7C137.7 325.7 139.2 325 140.5 325C142 325 143 324.4 143 323.5C143 320.3 164.2 300.4 170 298.2C170.8 297.9 172.1 296.8 172.8 295.8C173.5 294.8 174.6 294 175.1 294C175.7 294 177.4 292.8 178.9 291.3L181.7 288.5L167.1 285.6C153.6 283 138 279.5 104.5 271.9C79.1998 266.1 38.3998 256.9 28.9998 254.8C18.3998 252.6 15.9998 251.6 15.9998 249.5C15.9998 248.8 15.7998 247.6 15.6998 246.8C15.4998 246.1 15.4998 245.8 15.6998 246.1C15.8998 246.5 16.9998 246.6 17.9998 246.3C19.0998 246 19.9998 246.3 19.9998 246.9C19.9998 247.5 20.6998 247.7 21.6998 247.3C22.6998 246.9 23.0998 247.1 22.6998 247.7C22.2998 248.3 22.6998 249.1 23.5998 249.4C25.9998 250.3 26.6998 250.1 24.9998 248.9C23.7998 248.1 23.8998 248 25.4998 248.3C26.5998 248.6 29.2998 249.1 31.3998 249.5C34.3998 250 34.9998 250.4 33.8998 251.2C32.8998 251.9 33.3998 252 35.7998 251.6C38.0998 251.2 38.8998 251.4 38.3998 252.2C37.8998 252.9 38.3998 253.1 39.7998 252.8C40.9998 252.5 41.9998 252.6 42.1998 253C42.4998 253.7 63.9998 258.9 85.4998 263.5C89.3998 264.3 98.3998 266.3 105.5 268C121.8 271.8 152.4 278.6 157 279.5C158.9 279.9 161.2 280.3 162 280.6C163.3 280.9 163.5 275.4 163.2 234.5C163 195.2 162.7 188 161.5 188C160.8 188 159.8 189 159.5 190.3C159.1 191.5 156.6 197.7 154 204C151.4 210.3 147.8 219.1 146.1 223.5C143.3 230.5 138 238.2 138 235.1C138 234.5 137.4 234.3 136.6 234.6C135.7 234.9 134.9 233.6 134 230.3C133.3 227.7 132.3 225.1 131.9 224.6C130.6 223.1 130.8 222.2 132.5 221.8C133.5 221.6 133.7 221 133 220.1C131.9 218.2 130.8 218.5 96.7998 228.9C82.0998 233.3 69.3998 237 68.5998 237C67.8998 237 66.4998 235.9 65.5998 234.5C64.6998 233.2 61.2998 230.6 57.9998 228.8C54.6998 227 51.9998 225.2 51.9998 224.9C51.9998 221.9 56.8998 219.7 74.9998 214.4C85.6998 211.3 101.2 206.8 109.4 204.4C120.4 201.2 124.7 200.3 125.6 201.1C126.6 201.9 127.4 201.8 128.5 200.6C130.5 198.6 131.1 198.6 130.4 200.5C129.9 201.8 130.2 201.9 132.2 201.1C133.6 200.6 135.3 200.5 136 201C137.9 202.2 142.3 199.1 141.7 196.9C141.4 195.7 141.7 195.3 142.6 195.7C143.4 196 144 195.8 144 195.3C144 194.3 149 191.5 150.3 191.8C150.7 191.9 151 191.5 151 190.9C151 190.3 151.7 190 152.5 190.4C153.3 190.7 154 190.5 154 189.9C154 189.3 154.6 189 155.4 189.3C156.2 189.6 157 189.4 157.2 188.9C157.4 188.3 159.4 187.6 161.6 187.3C165.7 186.8 165.7 186.8 166.4 190.6C167.4 195.8 172.8 211.3 184.8 242.5C190.2 256.8 195.5 270.6 196.5 273.3C197.5 275.9 198.5 278 198.7 278C199 278 203.4 276.4 208.6 274.5C213.7 272.6 219.5 271 221.5 271C224.6 271 225 271.3 225 273.5C225 277.5 230.2 277.8 242.8 274.5C258.5 270.4 274.8 265.1 275.6 263.8C276 263.2 277.3 259.7 278.6 256.1L280.9 249.5L296.2 243.8C307.9 239.5 312.9 238.1 317.3 238.1C320.4 238 323 237.6 323 237C323 236.5 323.7 236 324.5 236C325.3 236 326 235.6 326 235C326 234.5 327.1 234 328.5 234C329.9 234 331 233.4 331 232.7C331 231.3 335 229 337.5 229C338.3 229 339 228.6 339 228.1C339 227.5 340.8 226.8 343 226.3C350.2 224.9 346.3 222.4 330 218C294.7 208.5 282.8 205.2 282.2 204.5C281.9 204.2 282.2 203.5 283 203C284.1 202.3 283.6 201.7 280.8 200.5C278.7 199.7 276.5 199 275.8 199C275.1 199 266.4 196.7 256.3 193.8C243.7 190.2 238 188.1 238 187.2C238 186.1 239.1 185.9 242.5 186.2C246.8 186.7 246.9 186.7 245.6 184.8C243.7 182.1 240 180.3 232.6 178.4C229.3 177.6 222.2 175.6 217 174C211.8 172.4 204.7 170.4 201.3 169.5C197.9 168.7 194.4 167.7 193.5 167.4C192.6 167 192 167.3 192 168.1C192 168.8 190.8 170.6 189.4 172.1C187.3 174.3 186.1 174.8 183.9 174.3C181.9 173.9 180 174.6 176.8 176.8C171.6 180.4 166 183.3 165.4 182.7C165.2 182.5 161 173.4 156.1 162.4C151.3 151.5 140.7 128.3 132.7 111C124.8 93.7 115.2 72.8 111.6 64.5C107.9 56.3 104.2 48.3 103.4 46.8L101.9 44H105.5C110.5 44 143.3 51 144.6 52.4C145.2 53 147 57.1 148.5 61.5C153.3 75.2 182 146.2 184.8 151.4L187.5 156.4L203 160.6C231.5 168.2 256.2 175.1 289.4 184.6C307.4 189.8 322.6 194 323.2 194C323.7 194 325.1 193.2 326.4 192.3L328.6 190.6L313.3 157C304.8 138.6 297.5 121.3 297 118.7C296.4 116 293.3 108.2 290 101.3C281.5 83.5 281.2 85 296.6 59.5C303.5 47.9 309.3 38.4 309.4 38.3C309.5 38.2 310.5 38.3 311.7 38.6C313.1 39 314.4 40.8 315.5 43.8C319.3 54.1 351.1 131.8 376.6 193.4L381.2 204.3L377.8 206.9C376 208.3 370.4 213 365.3 217.2C351.8 228.4 349.8 229.8 347 229.8C343.2 229.8 338.8 231.8 339.6 233.2C340.1 234 339.8 234.1 338.7 233.7C337.7 233.4 337 233.4 337 233.9C337 234.3 336.4 234.7 335.6 234.7C333.8 234.7 323.8 241.1 324.5 241.8C324.8 242.1 325.5 241.9 326.2 241.2C327 240.4 327.7 240.6 328.9 241.7C330.3 243.2 330.5 250 330.8 306.5L331.1 369.6L324.8 371.6C321.3 372.8 289.9 383.2 255.1 394.9C220.2 406.5 191.3 416 190.9 416C190.5 416 189.9 415.6 189.6 415.1ZM125 330C123.6 329.6 121.6 329.2 120.5 329.2C118.9 329.2 119 329.4 121 330C122.4 330.4 124.4 330.8 125.5 330.8C127.1 330.8 127 330.6 125 330ZM145 326.5C146.9 324.6 148.2 323 147.9 323C147.6 323 145.9 324.6 144 326.5C142.1 328.4 140.8 330 141.1 330C141.4 330 143.1 328.4 145 326.5ZM116.5 328.1C115.4 327.6 112.9 327 111 326.7C107.5 326.1 107.6 326.1 111.5 327.5C115.8 328.9 119.9 329.4 116.5 328.1ZM153.5 319C155.6 316.8 157.2 315 156.9 315C156.6 315 154.6 316.8 152.5 319C150.4 321.2 148.8 323 149.1 323C149.4 323 151.4 321.2 153.5 319ZM228.2 317.3C227.6 317.1 227.2 316.5 227.5 316C228.7 314 208.6 297.4 194.1 288.6C191.3 286.9 194.6 291.1 203.9 301.1C210 307.6 215 312 218.4 313.7C221.2 315.2 223.8 316.3 224.3 316.2C224.7 316.1 225 316.5 225 317C225 317.6 226 318 227.3 317.9C228.5 317.9 228.9 317.6 228.2 317.3ZM205 281.5C210.8 278.4 209.7 278.3 202.9 281.4C199.9 282.8 198.2 283.9 199 283.9C199.8 283.9 202.5 282.8 205 281.5ZM83.4998 227.9C99.7998 222.8 101.2 221.7 93.6998 220C91.2998 219.5 87.4998 220 80.8998 221.6C75.6998 222.9 69.2998 224.2 66.4998 224.6C62.1998 225.1 61.7998 225.4 63.3998 226.4C64.4998 227 66.2998 228.5 67.3998 229.6C68.5998 230.8 69.6998 231.8 69.9998 231.9C70.1998 232 76.2998 230.2 83.4998 227.9ZM179.8 151.7C178.7 149.5 174 138.2 169.3 126.6C164.6 115 160.4 104.8 159.9 104C158.3 101.2 159 104.1 161.1 109.1C163.1 113.7 163.1 114.2 161.6 115.9C159.6 118.1 159.4 120.8 161.4 119.1C162.5 118.2 162.9 118.4 163.3 120.1C163.7 121.5 163.5 122 162.6 121.7C160.4 120.9 162.5 129 167.6 141.9C172.9 155.2 176.8 163.2 178.4 164.2C179.1 164.7 179.9 163.3 180.7 160.3C181.7 156.2 181.6 155.2 179.8 151.7ZM155.6 93.3C154.8 91.8 154.1 90.8 154 91.2C154 92.4 156.3 97 156.7 96.6C157 96.4 156.5 94.9 155.6 93.3ZM153.4 87.8C151.5 81.3 142.7 59.9 142.3 60.4C142 60.7 142.5 62.5 143.4 64.5C144.4 66.5 144.8 69 144.5 70.3C144.1 71.6 144.2 72 144.7 71.3C145.2 70.5 146.9 73.7 149.4 80.1C151.6 85.5 153.5 90 153.7 90C153.9 90 153.8 89 153.4 87.8ZM137 55.1C137 54.6 135.7 54 134.1 53.7C126.4 52.1 125.9 52.2 131 53.9C134 55 136.6 55.8 136.8 55.9C136.9 56 137 55.6 137 55.1Z" fill="#BF1C24"/>
<path d="M9.3 245.8C6.9 245.3 5 244.5 5 244.1C5 242.5 9.2 242.1 10.6 243.5C11.4 244.2 12.5 245 13.2 245.3C16 246.3 13.3 246.6 9.3 245.8Z" fill="#BF1C24"/>
<path d="M189.7 415.3C189.3 415 189 413.2 189 411.3C189 409 189.5 408 190.5 408C191.3 408 192 408.6 192.1 409.3C192.1 409.9 192.4 411.7 192.6 413.3C193.1 415.9 191.4 417.1 189.7 415.3Z" fill="#D81F26"/>
<path d="M189 398C189 392.5 191.3 390.9 192.4 395.5C193.2 398.8 192.1 403 190.4 403C189.4 403 189 401.6 189 398Z" fill="#D81F26"/>
<path d="M189 367.5C189 362.5 189.3 361 190.5 361C192.3 361 193.4 366.7 192.5 370.9C192.1 372.6 191.2 374 190.4 374C189.3 374 189 372.4 189 367.5Z" fill="#D81F26"/>
<path d="M189 340C189 332.2 189.3 330 190.4 330C192.2 330 193 333.1 193 340C193 346.9 192.2 350 190.4 350C189.3 350 189 347.8 189 340Z" fill="#D81F26"/>
<path d="M116.5 333.2C111 331.8 106.3 330.4 106 330C105.7 329.6 103.7 329.1 101.5 328.8C99.3 328.5 93.8 327.2 89.3 326L81 323.8V320.3V316.8L87.8 317.5C91.5 317.9 94.6 318.6 94.8 319C95 319.5 97.6 320.4 100.6 321.1C103.6 321.8 106 322.7 106 323.2C106 323.6 108.4 324 111.4 324C117.7 324 127.2 325.9 128.2 327.4C128.6 328 130.7 328.3 132.9 328.1C136.5 327.9 137 328.1 137 329.9C137 331.1 136.6 332 136.1 332C134.6 332 123.1 329.3 105.2 324.8C96.2 322.6 88.7 321 88.4 321.2C87.8 321.9 127.3 332.1 132.8 332.8C137.8 333.3 138.3 334.5 133.9 335.4C129.3 336.3 127.5 336.1 116.5 333.2Z" fill="#D81F26"/>
<path d="M141 330.6C141 330.3 146.7 325.4 153.8 319.7C160.8 313.9 170.1 306 174.5 302C181.6 295.5 182.5 295 182.8 296.9C183.3 300.4 182.3 302 179.5 302C178.1 302 177 302.5 177 303C177 303.6 176.5 304 175.9 304C174.2 304 172 306.7 172 308.7C172 311.2 170.1 313 167.4 313C165.8 313 165 313.7 164.8 315.3C164.6 316.7 163.7 317.6 162.3 317.8C161 318 160 318.8 160 319.6C160 320.4 159 321 157.6 321C155.8 321 155.1 321.6 154.8 323.3C154.6 324.8 153.7 325.6 151.8 325.8C149.9 326 149 326.8 148.8 328.3C148.6 330 147.7 330.6 144.8 330.8C142.7 331 141 330.9 141 330.6Z" fill="#D81F26"/>
<path d="M139.2 326.9C139.5 323.8 139.8 323.5 143.2 323.2C146.1 323 146.9 322.4 147.2 320.7C147.4 319.2 148.3 318.4 150 318.2C152.4 317.9 152.3 318.1 148.5 322C146.3 324.3 143.2 327.1 141.7 328.2L138.9 330.2L139.2 326.9Z" fill="#D81F26"/>
<path d="M189 316.5C189 309.9 189.3 308 190.4 308C192 308 193 311.1 193 316.5C193 321.9 192 325 190.4 325C189.3 325 189 323.1 189 316.5Z" fill="#D81F26"/>
<path d="M153 315.5C153 314.7 153.7 314 154.6 314C156 314 156 314.3 155 315.5C154.3 316.3 153.6 317 153.4 317C153.2 317 153 316.3 153 315.5Z" fill="#D81F26"/>
<path d="M157 312.2C157 311.6 157.5 310.8 158 310.5C158.6 310.2 159 308.8 159 307.4C159 305.5 159.5 305 161.5 305C163.3 305 164 304.5 164 303C164 301.9 164.7 301 165.5 301C166.3 301 167 300.6 167 300C167 299.5 167.7 299 168.5 299C169.3 299 170 298.6 170 298C170 297.5 171.1 297 172.5 297C174.3 297 175 296.5 175 295C175 293.3 175.7 293 178.8 293L182.5 293.1L179 296.1C177.1 297.8 173.5 300.6 171 302.3C168.5 304 164.4 307.1 161.8 309.3C159.1 311.4 157 312.7 157 312.2Z" fill="#D81F26"/>
<path d="M189 295C189 294.5 187.8 294 186.3 294C183.7 294 183.7 294 185.6 291.8C187.1 289.9 187.2 289.8 185.8 290.9C184.3 292 184 292 184 290.8C184 289.7 180.4 288.6 170 286.4C158.3 284 156 283.3 156 281.8C156 279.5 155.1 279.5 172.1 283C180 284.6 187.7 286 189.1 286C191.4 286 191.8 286.5 192.2 289.3C192.7 293.8 192.1 296 190.4 296C189.6 296 189 295.6 189 295Z" fill="#D81F26"/>
<path d="M194.2 277.8C179.6 241 164.5 199.7 163.4 193.8C162.9 190.5 163 190 164.6 190C166.2 190.1 167.5 193.1 171.8 206.3C174.7 215.2 177 223.1 177 223.8C177 224.4 177.4 225 178 225C178.5 225 179.3 226.8 179.6 229C180 231.2 180.6 233 181.1 233C181.6 233 182 234.1 182 235.5C182 236.9 182.4 238 183 238C183.5 238 184.3 239.8 184.6 242C185 244.2 185.6 246 186.1 246C186.6 246 187.3 247.8 187.6 250C188 252.2 188.6 254 189.1 254C189.6 254 190 255.1 190 256.5C190 257.9 190.5 259 191 259C191.6 259 192 260.1 192 261.4C192 262.7 192.4 264 192.9 264.2C193.5 264.4 194.5 266.8 195.2 269.5C195.9 272.3 197.2 275.3 198 276.3C199.8 278.4 205 278.6 205 276.5C205 275.6 205.9 275 207.4 275C208.7 275 210 274.6 210.2 274.2C210.7 272.9 240.4 263 243.8 263C246.7 263 247 263.3 247 266.3C247 269.1 246.4 269.8 242 272.3C239.2 273.9 237 275.3 237 275.5C237 276.5 270.7 266.4 273.8 264.4C277.4 262 276.6 260.4 271.9 260.8L267.9 261.2L268.2 257.4C268.5 253.9 268.8 253.6 273.5 251.9C276.3 250.9 280 250.1 281.8 250.1C283.8 250 285 249.5 285 248.7C285 247.2 291.2 245 295.4 245C300.1 245 297.8 247.3 290.6 250L283.9 252.5L281.6 259.1C280.3 262.7 279 266.2 278.6 266.8C277.1 269.2 238.6 280.1 231.1 280.3C228.4 280.4 224.9 279.7 222.7 278.6C219.2 276.9 219.1 276.6 220.7 275.3C222.4 274 222.3 273.9 220 274.5C218.6 274.9 213.1 277 207.6 279.1C202.2 281.2 197.4 283 197 283C196.6 283 195.3 280.6 194.2 277.8Z" fill="#D81F26"/>
<path d="M137 278C137 275.9 138 275.6 141.8 276.6C145.4 277.6 144.5 280 140.5 280C137.7 280 137 279.6 137 278Z" fill="#D81F26"/>
<path d="M115.3 274.7C104.1 272 102 271.2 102 269.6C102 267.4 101.8 267.4 121.8 272.2C130.6 274.3 135 275.8 135 276.7C135 278.7 130 278.2 115.3 274.7Z" fill="#D81F26"/>
<path d="M89.3 268.7C86.1 268 85 267.2 85 265.9C85 263.6 85.4 263.6 93.5 265.6C97.6 266.6 100 267.8 100 268.6C100 270.2 95.7 270.3 89.3 268.7Z" fill="#D81F26"/>
<path d="M71 263C71 260.9 72 260.6 75.8 261.6C79.4 262.6 78.5 265 74.5 265C71.7 265 71 264.6 71 263Z" fill="#D81F26"/>
<path d="M58 260C58 257.9 59 257.6 62.8 258.6C66.4 259.6 65.5 262 61.5 262C58.7 262 58 261.6 58 260Z" fill="#D81F26"/>
<path d="M49 258C49 255.9 50 255.6 53.8 256.6C57.4 257.6 56.5 260 52.5 260C49.7 260 49 259.6 49 258Z" fill="#D81F26"/>
<path d="M32 254C32 251.9 33 251.6 36.8 252.6C40.4 253.6 39.5 256 35.5 256C32.7 256 32 255.6 32 254Z" fill="#D81F26"/>
<path d="M22 252C22 249.9 23 249.6 26.8 250.6C30.4 251.6 29.5 254 25.5 254C22.7 254 22 253.6 22 252Z" fill="#D81F26"/>
<path d="M6.8 245.3C5.8 245.1 5 244.4 5 243.9C5 242.5 8.3 242.9 10.4 244.5C12.4 246 12.4 246 10.4 245.9C9.4 245.8 7.7 245.6 6.8 245.3Z" fill="#D81F26"/>
<path d="M305 242.5C305 240.3 305.4 240 308.6 240C313 240 312.8 241.8 308.2 243.7C305.1 245 305 244.9 305 242.5Z" fill="#D81F26"/>
<path d="M316.8 241.3C314.8 241 314 240.3 314 238.9C314 237.3 314.7 237 319 237C321.8 237 324 236.6 324 236C324 235.5 325.1 235 326.5 235C328.1 235 329 234.4 329 233.5C329 232.5 330.1 232 332.5 232C334.4 232 336 232.3 336 232.8C336 233.9 322.4 242 320.9 241.9C320.1 241.8 318.3 241.5 316.8 241.3Z" fill="#D81F26"/>
<path d="M66.0996 234.1C65.4996 233.1 62.9996 231 60.5996 229.6C54.1996 225.9 54.5996 223.4 61.9996 222C64.9996 221.4 72.4996 219.8 78.4996 218.4C87.0996 216.4 90.5996 216 94.4996 216.6C97.2996 217 100.4 217.4 101.5 217.4C103 217.5 103.4 218.1 103.1 220C103 221.4 102.3 222.8 101.7 223.2C101.2 223.5 101.8 224 103.1 224.2C105.5 224.6 72.2996 236 68.7996 236C67.7996 236 66.5996 235.1 66.0996 234.1Z" fill="#D81F26"/>
<path d="M347.7 228.3C347.3 228 347 226.8 347 225.8C347 224.8 346.6 224 346 224C345.5 224 345 222.7 345 221C345 218.8 345.4 218.2 346.5 218.7C348.4 219.4 352.3 226.7 351.5 228C350.8 229.1 348.6 229.3 347.7 228.3Z" fill="#D81F26"/>
<path d="M335 218C335 215.9 336 215.6 339.8 216.6C343.4 217.6 342.5 220 338.5 220C335.7 220 335 219.6 335 218Z" fill="#D81F26"/>
<path d="M311.3 213.3C309.8 213 309 212.1 309 210.9C309 208.7 309.6 208.6 315.6 210.1C323.8 212.2 320 215 311.3 213.3Z" fill="#D81F26"/>
<path d="M298 208C298 205.9 299 205.6 302.8 206.6C306.4 207.6 305.5 210 301.5 210C298.7 210 298 209.6 298 208Z" fill="#D81F26"/>
<path d="M285.1 206.1C282.6 205.4 280.9 203 283 203C283.6 203 283.9 202.6 283.6 202.1C283.3 201.7 285.5 202 288.5 202.8C294.7 204.5 296 207.1 290.8 206.9C289 206.8 286.4 206.5 285.1 206.1Z" fill="#D81F26"/>
<path d="M265.8 196.3C264.2 196.1 263 195.4 263 194.8C263 194.2 262.7 193.9 262.4 194.2C262.1 194.5 259.5 194.2 256.7 193.5C236.8 188.5 187.6 175.3 184.6 174.1C182.9 173.4 183 173.1 185.9 169.8C187.6 167.8 189 165.5 189 164.7C189 163.6 189.8 163.2 191.8 163.5C195 163.9 206.9 167.1 220 171C225.2 172.6 232.4 174.6 236 175.5C239.6 176.4 243 177.6 243.6 178.1C244.2 178.6 244.9 178.7 245.2 178.4C246.4 177.2 251.8 187 251.2 189.3C251.1 189.8 251.4 189.9 252 189.5C252.5 189.2 253 189.3 253 189.9C253 190.5 253.7 190.7 254.5 190.4C255.3 190 256 190.2 256 190.8C256 191.6 257.8 192.4 262.5 193.6C264.9 194.1 269 196 269 196.5C269 196.8 268.9 196.9 268.8 196.9C268.6 196.8 267.3 196.5 265.8 196.3Z" fill="#D81F26"/>
<path d="M286 187.6C253.7 178.3 229.6 171.6 200 163.6L184.5 159.4L181.8 154.4C179 149.2 150.3 78.1999 145.5 64.4999C144 60.0999 142.2 55.9999 141.6 55.3999C140.6 54.3999 108.2 46.9999 104.8 46.9999C104.1 46.9999 102.9 46.0999 102.3 45.0999C101.1 43.1999 101.4 43.0999 107.7 43.0999C112.1 43.0999 114.7 43.5999 115.7 44.5999C116.5 45.3999 118.1 45.9999 119.3 45.9999C120.5 46.0999 126.9 47.2999 133.4 48.8999L145.4 51.5999L147.1 56.5999C148.1 59.2999 148.9 62.4999 148.9 63.6999C149 64.8999 149.4 65.9999 149.8 66.1999C150.8 66.5999 166 105.1 166 107.3C166 108.2 166.5 109 167 109C167.6 109 168 110.1 168 111.5C168 112.9 168.4 114 169 114C169.5 114 170.2 115.7 170.6 117.7C171 119.8 171.9 122.1 172.7 122.8C173.4 123.5 174 125.2 174 126.6C174 127.9 174.4 129 174.8 129C175.7 129 178 134.9 178 137.2C178 138.1 178.4 139 178.8 139.2C179.2 139.4 181.2 143 183.2 147.2C185.2 151.4 187.7 155.3 188.7 155.8C190.6 156.7 221.5 164.9 240.5 169.4C251.8 172.1 258 172.7 258 171.1C258 170.6 258.9 169.8 260 169.5C261.1 169.2 262 168.2 262 167.5C262 166.7 262.9 165.6 263.9 165C265 164.5 266.5 163.4 267.2 162.8C268 162.1 269.3 161.1 270.1 160.5C271 160 275 157.3 279.1 154.5C288 148.5 292.5 146 294.4 146C297.1 146 300.1 142.5 301.1 138.2C302 134.3 301.7 133.1 298.5 126C296.6 121.8 295 117 295 115.5C295 114 293 108.5 290.5 103.2C286.2 94.1999 284.8 87.9999 287 87.9999C288.1 87.9999 292.4 96.1999 298.1 109.3C302.4 119.3 302.4 119.4 300.9 118.5C299.6 117.7 299.8 118 316.5 154.5C332.3 188.9 334.4 193.7 333.5 192.8C333.1 192.4 331.6 193.2 330.2 194.6C328.1 196.4 326.4 197 323 197C320.4 196.9 304.5 192.9 286 187.6Z" fill="#D81F26"/>
<path d="M284 82.4999C284 80.0999 284.5 78.9999 285.5 78.9999C286.4 78.9999 287 78.0999 287 76.4999C287 74.8999 287.6 73.9999 288.5 73.9999C289.4 73.9999 290 73.0999 290 71.4999C290 69.6999 290.5 68.9999 292 68.9999C293.6 68.9999 294 68.2999 294 65.4999C294 63.5999 294.5 61.9999 295 61.9999C295.6 61.9999 296 61.2999 296 60.4999C296 59.6999 296.7 58.9999 297.5 58.9999C298.4 58.9999 299 58.0999 299 56.4999C299 54.8999 299.6 53.9999 300.5 53.9999C301.4 53.9999 302 53.0999 302 51.4999C302 49.8999 302.6 48.9999 303.5 48.9999C304.4 48.9999 305 48.0999 305 46.4999C305 44.8999 305.6 43.9999 306.5 43.9999C307.4 43.9999 308 43.0999 308 41.5999C308 38.6999 308.9 37.8999 311.7 38.5999C313.6 39.0999 313 40.3999 305.1 53.2999C292.2 74.3999 287 83.4999 287 84.7999C287 85.4999 286.3 85.9999 285.5 85.9999C284.5 85.9999 284 84.8999 284 82.4999Z" fill="#D81F26"/>
<path d="M171.5 411C161.1 408.4 142.6 403.9 130.5 401C99.9001 393.7 18.0001 373.1 16.9001 372.4C15.9001 371.8 15.7001 349.8 16.6001 346.3C17.1001 344.4 17.9001 344 21.3001 344C23.5001 344 27.0001 344.5 29.1001 345.2C33.5001 346.5 38.5001 345.4 45.5001 341.5C47.7001 340.3 53.6001 338.1 58.5001 336.6C63.5001 335.1 68.6001 333.4 70.0001 332.9C73.7001 331.3 82.0001 325.8 82.0001 324.9C82.0001 324.4 80.4001 323.8 78.5001 323.4C75.2001 322.8 75.0001 322.6 75.0001 318.7V314.7L79.9001 315.3C82.5001 315.6 95.2001 318.4 108.1 321.5C120.9 324.7 132.9 327.2 134.7 327.2C138.2 327.2 141 325.6 141 323.6C141 321.8 145.3 318 147.4 318C148.3 318 151.5 316.1 154.5 313.9C158.9 310.6 160 309.2 160 306.9C160 304.4 160.4 304.1 163.8 303.8C167 303.5 167.5 303.1 167.8 300.8C168 299.2 168.7 298 169.6 298C170.4 298 171 297.6 171 297C171 296.5 172.1 296 173.5 296C175.3 296 176 295.5 176 294C176 292.6 176.7 292 178.1 292C179.5 292 180 291.5 179.8 290.3C179.6 289 176.4 288 165.5 285.8C157.8 284.2 142.5 280.9 131.5 278.4C120.5 275.9 108.2 273.2 104.3 272.3C98.5001 271 97.0001 270.3 97.0001 268.8C97.0001 266.5 96.9001 266.5 111.8 270C134.1 275.4 183.1 285.7 188.5 286.2L191.5 286.5L191.8 351.3C191.9 386.9 191.7 416 191.3 415.9C190.8 415.8 182 413.7 171.5 411ZM146.2 326.1C150.8 322.4 157.5 316.9 161.1 313.9C169.2 307.3 188.4 289.9 188.9 288.7C189.1 288.2 185.9 290.5 181.9 293.7C177.8 297 172.3 301.1 169.6 303C166.9 304.8 159.3 311.4 152.8 317.7C146.2 324 139.8 329.8 138.5 330.6C136 332.3 133.6 331.8 102.1 324.1C85.8001 320 83.2001 319.5 84.2001 320.5C85.4001 321.7 129.9 332.9 133.7 332.9C137.4 333 138.8 332.3 146.2 326.1Z" fill="#EF2428"/>
<path d="M195 278.8C191.7 271.7 173.1 222.5 167.9 207C162.4 190.7 162 188 165 188C166.3 188 167 188.7 167 189.9C167 193.2 186.7 247.3 198.7 276.7C199.1 277.6 199.7 277.7 201 277C202 276.4 203.8 276 204.9 276C205.9 276 207 275.6 207.2 275.1C207.5 274 225.4 267.5 251 259C260.6 255.8 278.2 249.8 290 245.5C302.5 241 314.1 237.4 317.7 237C321.2 236.6 324.6 235.6 325.5 234.6C326.4 233.7 327.6 233 328.1 233C328.7 233 329.8 232.3 330.6 231.5C332.2 229.9 339 229.4 339 230.9C339 231.4 334.9 234.1 330 237C323.2 240.9 320.6 241.9 319.6 241.1C318.7 240.3 314.3 241.4 302.9 245.5C268.8 257.6 267.6 258.1 276.3 256.9C279.1 256.6 281.6 256.3 281.7 256.4C282.5 257.1 277.9 266.7 276.4 267.7C273.8 269.3 252.7 275.7 240.2 278.5C232.3 280.3 229.2 280.6 227.2 279.9C224.6 278.9 224.6 278.8 226.5 277.8C227.6 277.2 228.7 276.4 229 276.1C229.5 275.5 237.4 270.2 242.5 267.1C245 265.5 244.6 265.6 225.5 272.3C216.7 275.4 206.9 279 203.7 280.4C200.5 281.8 197.7 283 197.5 283C197.2 283 196.1 281.1 195 278.8Z" fill="#EF2428"/>
<path d="M77.8 266.3C75.8 266 75 265.3 75 263.9C75 261.7 75.3 261.6 82 263.1C85.1 263.8 87 264.7 87 265.6C87 267 84 267.2 77.8 266.3Z" fill="#EF2428"/>
<path d="M64.3 263.3C62.8 263 62 262.1 62 260.9C62 258.7 62.6 258.6 68.6 260.1C76.8 262.2 73 265 64.3 263.3Z" fill="#EF2428"/>
<path d="M53 259C53 256.9 54 256.6 57.8 257.6C61.4 258.6 60.5 261 56.5 261C53.7 261 53 260.6 53 259Z" fill="#EF2428"/>
<path d="M33.3 256.2C27.3 254.9 26 254.3 26 252.7C26 251 26.5 250.9 29.8 251.5C41.2 253.5 47 255.3 47 256.6C47 258.4 43 258.3 33.3 256.2Z" fill="#EF2428"/>
<path d="M16 250C16 247.8 18 247.4 21.1 249C24.1 250.6 23.4 252 19.5 252C16.7 252 16 251.6 16 250Z" fill="#EF2428"/>
<path d="M5.8 245.3C4.2 245.1 3 244.4 3 243.9C3 242.5 7.4 242.8 9.6 244.5C11.6 246 11.2 246.1 5.8 245.3Z" fill="#EF2428"/>
<path d="M340.3 221.3C337.9 220.8 337 217 339.3 217C342.3 217 347.9 219.2 348.4 220.5C348.9 222 345.7 222.3 340.3 221.3Z" fill="#EF2428"/>
<path d="M327 216C327 213.9 328 213.6 331.8 214.6C335.4 215.6 334.5 218 330.5 218C327.7 218 327 217.6 327 216Z" fill="#EF2428"/>
<path d="M254.9 176C253.5 175.6 250.9 175.4 249.2 175.5C247.4 175.7 246 175.4 246 175C246 174.5 245.1 174.4 244 174.7C242.9 175 242 174.8 242 174.2C242 173.6 241 173.4 239.8 173.8C238.3 174.2 237.9 174 238.5 173.1C239 172.1 238.7 172 237.1 172.5C235.8 172.9 235 172.7 235 172C235 171.3 234.3 171 233.5 171.3C232.7 171.7 231.8 171.5 231.5 170.9C231.1 170.4 230.5 170.2 230 170.5C229.2 171 190.8 160.9 186.2 159C184.6 158.3 182.6 155.2 180 149.7C174.2 137.4 145.6 65.4 142.8 56.1C142.4 54.6 130.3 51.4 113.5 48.4C106.4 47.2 104 46.3 102.3 44.4C101 43 100 41.5 100 40.9C100 39.7 104.7 39.7 105.5 41C105.8 41.6 107.2 42 108.6 42C110 42 115.5 43.1 120.8 44.4C126.1 45.7 136.9 48 144.8 49.5C154.2 51.4 159 52.7 159 53.6C159 54.3 160.5 55.1 162.3 55.5C164 55.8 168.4 56.7 172 57.5C175.6 58.3 183.9 60.1 190.4 61.5C207.5 65.2 209.8 66 210.5 68.8C210.8 70.1 213.4 73.4 216.3 76.3C220.8 80.8 222.7 81.8 229.7 84C234.9 85.6 238 87 238 87.9C238 89.9 242.7 88.7 248.6 85.2C252.6 82.9 255.6 82.1 264.8 81C270.9 80.3 277.5 80 279.4 80.3C282.8 80.8 283.1 80.6 286.1 75.7C287.8 72.8 289.6 70.3 289.9 70C290.3 69.7 291.2 68 291.9 66.3C292.7 64.5 293.6 63 294.1 63C294.6 63 295 62.5 295 61.9C295 61.3 297.3 56.9 300.2 52.2C303.6 46.5 305.3 42.6 305.2 40.8C305 38.4 305.3 38 307.7 38C313.8 38 313.6 38.7 300 61.4C292.9 73.4 287 83.8 287 84.6C287 85.4 289.5 91.5 292.5 98C295.5 104.5 298 111.1 298 112.6C298 114 299.8 119.2 301.9 124C304.5 129.7 305.8 134 305.7 136.3C305.6 138.2 305.2 139.6 304.8 139.3C304.3 139.1 304 140.1 304 141.5C304 144.3 300 149 297.5 149C294.8 149 279 158.5 279 160.1C279 160.7 278.6 160.9 278.1 160.6C277.7 160.3 276.5 160.9 275.5 162C274.5 163.1 273.1 164 272.3 164C271.6 164 271 164.4 271 164.8C271 165.2 269.7 166.4 268 167.3C266.4 168.3 265 169.7 265 170.5C265 171.2 264.1 172.2 263 172.5C261.9 172.9 261.2 173.6 261.5 174.1C261.9 174.6 261.4 175 260.5 175C259.6 175 259.2 175.5 259.5 176C260.2 177.2 258.6 177.2 254.9 176Z" fill="#EF2428"/>
<path d="M17.8003 372.9C16.5003 372.2 16.0003 370.7 16.1003 367.7C16.2003 363.6 16.2003 363.6 17.0003 366.7C17.8003 370.3 19.7003 372.6 22.6003 373.3C24.1003 373.7 24.0003 373.8 22.0003 373.9C20.6003 373.9 18.7003 373.5 17.8003 372.9Z" fill="#FF312F"/>
<path d="M16.2 326.3L16 293H18.4C19.8 293 21.2 293.5 21.5 294C22.4 295.4 25.7 295.2 28.8 293.6C32.2 291.8 41.6 289 44.1 289C45.5 289 46 288.3 46 286C46 283.3 46.3 283 49.4 283C52.2 283 53.2 283.6 55 286.5C56.2 288.4 57.9 290 58.8 290C59.8 290 62.4 293 65.2 297.4C70.7 306.1 72.2 306.6 82.1 303.9C85.9 302.9 90.4 302 92.2 302C95.6 302 102 300.6 105.5 299C111 296.6 120.4 294 123.8 294C125.8 293.9 130.4 293.2 134 292.4C143.7 290 148.6 289.7 158.8 290.9C166.3 291.7 168.6 292.4 170.5 294.2C174.4 297.8 173.6 300 166.5 305.5C162.9 308.3 155 315.2 148.9 320.9L137.8 331.3L132.6 330.6C129.8 330.3 120.1 328.2 111 326C87 320 78 318.1 78 318.9C78 319.3 80.3 320.2 83.1 320.9C85.8 321.6 87.9 322.5 87.6 322.8C87.3 323.1 87.5 323.9 88.1 324.6C88.8 325.5 88.6 326 87.1 326.5C85.9 326.8 85 327.5 85 327.9C85 328.8 76.6 334.3 73 335.9C71.6 336.4 66.5 338.1 61.5 339.6C56.6 341 51.2 343.1 49.5 344.1C42.7 348.1 30.4 350.6 27 348.5C24.8 347.1 20 347.2 20 348.5C20 349.3 19.4 350.3 18.6 350.7C17.8 351.1 17 353.3 16.7 355.5C16.5 357.7 16.3 344.5 16.2 326.3Z" fill="#FF312F"/>
<path d="M190.299 299.5C190.299 297.3 190.499 296.5 190.699 297.8C190.899 299 190.899 300.8 190.699 301.8C190.399 302.7 190.199 301.7 190.299 299.5Z" fill="#FF312F"/>
<path d="M179.1 299.2C180.4 297.7 182.8 295.3 184.5 294C186.9 292 186.6 292.5 183.2 296.8C180.8 299.6 178.4 302 177.8 302C177.3 302 177.9 300.8 179.1 299.2Z" fill="#FF312F"/>
<path d="M176.1 296.3C177.4 294.8 179.6 292.6 181 291.4L183.4 289.2L178.2 288.5C174 288 173 287.4 173 285.9C173 284.9 173.6 284 174.3 284C176.3 284.1 188.1 286.7 188.6 287.3C189.1 287.8 175.5 299 174.4 299C174 299 174.7 297.8 176.1 296.3Z" fill="#FF312F"/>
<path d="M164 284C164 281.9 165 281.6 168.8 282.6C172.4 283.6 171.5 286 167.5 286C164.7 286 164 285.6 164 284Z" fill="#FF312F"/>
<path d="M154 282C154 279.9 155 279.6 158.8 280.6C162.4 281.6 161.5 284 157.5 284C154.7 284 154 283.6 154 282Z" fill="#FF312F"/>
<path d="M142.3 281.3C140.8 281 140 280.1 140 278.9C140 276.7 140.6 276.6 146.6 278.1C154.8 280.2 151 283 142.3 281.3Z" fill="#FF312F"/>
<path d="M196 280.1C195 278.2 177.7 233.5 171.9 217.8L169.1 210H171.5C173.5 210 174 210.6 174.6 213.7C175.4 217.8 176.3 219 180 221C184.1 223.2 197 222.2 204.5 219.1C205.6 218.6 207.6 217.8 209 217.3C211.3 216.3 224.1 212.8 230.3 211.4C232.5 210.9 233 210.2 233 207.9C233 206.3 233.5 205 234 205C234.6 205 243.1 207 253 209.5C271.2 214.1 275.6 214.8 274.5 213C273.4 211.2 277.6 211.9 300.2 217.5C340.9 227.6 339 227 339 229.7C339 231.2 338.2 232.4 336.6 232.9C335.3 233.4 331.9 235.3 329 237.1C325.3 239.4 322.4 240.4 319.1 240.5C316.1 240.6 304.8 244.1 286.3 250.8C270.9 256.3 256.2 261.4 253.8 262C247.5 263.7 214.6 275.6 206.6 279C198.5 282.5 197.4 282.6 196 280.1Z" fill="#FF312F"/>
<path d="M128.8 278.3C126.8 278 126 277.3 126 275.9C126 273.7 126.3 273.6 133 275.1C136.1 275.8 138 276.7 138 277.6C138 279 135 279.2 128.8 278.3Z" fill="#FF312F"/>
<path d="M32.2 270.2C28.5 265.3 27 262.4 27 260.2C27 257.3 27.3 257 30.3 257C33.2 257 34.2 257.8 38.8 263.8C42.5 268.7 44 271.6 44 273.8C44 276.7 43.7 277 40.7 277C37.8 277 36.8 276.2 32.2 270.2Z" fill="#FF312F"/>
<path d="M0.999803 244C-0.200197 243.3 0.199804 243 2.4998 243C4.1998 243 6.1998 243.5 6.9998 244C8.1998 244.7 7.7998 245 5.4998 245C3.8998 245 1.7998 244.5 0.999803 244Z" fill="#FF312F"/>
<path d="M237.3 92.2C236 92 235 91.3 235 90.7C235 90 231.3 88.4 226.7 87C219.5 84.8 217.8 83.8 213 79C210 76 207.6 73.2 207.7 72.8C207.9 72.3 207.6 72 207 72C206.5 72 206.3 71.4 206.5 70.7C207.3 68.9 205.3 68.4 168.8 60.5C154.4 57.4 148 55.8 148 55.3C148 55 149.9 55.1 152.3 55.4C155.8 55.8 155.6 55.7 151 54.6C148 53.8 143.8 52.9 141.8 52.6C139.3 52.1 138 51.4 138 50.3C138 49 138.9 48.8 144.1 49.4C147.5 49.8 154.6 51.2 159.9 52.6C170.4 55.3 182.1 56.1 182.8 54.2C183 53.5 184.2 53 185.4 53C189.2 53 198.1 50 206.5 46C210.9 43.9 216.7 41.6 219.4 40.9C222.1 40.2 228.5 37.5 233.6 34.9C241.4 30.9 242.4 30.1 240.4 29.6C237.5 28.8 237 25 239.8 25C240.7 25 247.1 26.1 254 27.5C260.9 28.9 275.6 31.8 286.7 33.9C306.8 37.9 311 39.1 311 41.1C311 42.1 290.6 76.8 286.8 82.2C285.8 83.7 284.4 84.7 283.7 84.5C281.7 83.7 272 83.2 272.4 83.9C272.6 84.2 269.2 84.6 264.8 84.7C260.4 84.8 256.3 85.3 255.7 85.8C255 86.3 251.9 88.1 248.8 89.8C243.3 92.8 242.3 93 237.3 92.2Z" fill="#FF312F"/>
<path d="M220 22.9998C220 20.8998 221 20.5998 224.8 21.5998C228.4 22.5998 227.5 24.9998 223.5 24.9998C220.7 24.9998 220 24.5998 220 22.9998Z" fill="#FF312F"/>
<path d="M138 6.99988C138 4.89988 139.6 4.49988 143.8 5.59988C147.7 6.69988 146.5 8.99988 142 8.99988C138.7 8.99988 138 8.69988 138 6.99988Z" fill="#FF312F"/>
<path d="M87.5 320.4C79.3 318.5 71.5 316.2 70.2 315.4C68.9 314.5 64.5 308.6 60.3 302.2C53 290.8 49.5 286.1 51.9 290.8C53.1 293 53 293.1 47.8 292.9C42.6 292.7 37.1 294 32 296.5C27.7 298.6 22.7 299.1 19.8 297.6C17.4 296.3 17.1 296.4 16.7 297.8C16.4 298.8 16.2 290.6 16.1 279.8L16 260H18.5C19.9 260 21 260.5 21 261C21 261.6 21.7 262 22.6 262C23.8 262 24.1 261.4 23.6 259.8C23.3 258.5 23 256.7 23 255.8C23 254.8 21.6 253.7 19.5 253C17 252.2 16 251.2 16 249.8C16 248.3 16.5 247.9 17.8 248.3C26.2 250.7 35.2 252.8 58.5 258C73.4 261.3 97 266.8 111 270.1C144.1 277.9 146 278.3 168.9 283C179.6 285.2 188.5 287.2 188.7 287.4C189.1 287.8 178.1 296.7 170 302.5C167 304.7 162.1 308.7 159.2 311.4C156.3 314.1 153.7 316.1 153.4 315.8C153.1 315.5 156.7 311.7 161.4 307.4L169.9 299.6L167.5 297.2C165.6 295.3 163.5 294.7 155.5 293.9C148.9 293.1 145.1 293.1 143.2 293.8C139.3 295.3 130.5 297 126.5 297C123.4 297 113.9 299.7 108.5 302C105 303.6 98.6 305 95.2 305C90.8 305 77.8 308.7 76.9 310.2C76.3 311.2 75.4 311.1 73.1 309.7C69.7 307.7 68.6 307.5 69.6 309.3C70 309.9 69.4 309.6 68.2 308.6C67 307.6 64.9 304.7 63.5 302.4C62.1 300 60.7 298 60.4 298C59 298 68.6 312.7 70.9 313.9C71.8 314.4 78.4 316.2 85.5 317.8C97.3 320.6 107.7 324 104 323.9C103.2 323.9 95.8 322.3 87.5 320.4ZM62.7 269.5C67.6 268.7 73.5 268 75.9 268C78.3 268 80.1 267.7 79.7 267.4C78.7 266.4 33.6 256.1 33 256.7C32.7 257 33.5 257.9 34.8 258.7C36 259.6 37 260.9 37 261.7C37 262.4 37.7 263.3 38.5 263.6C39.3 264 40 264.8 40 265.6C40 266.4 41 267 42.3 267C43.6 267 45.5 267.9 46.4 268.9C48.1 270.8 51.7 272 53.2 271.3C53.6 271.1 57.9 270.3 62.7 269.5ZM36 267C34.3 264.8 32.6 263 32.3 263C32.1 263 33.3 264.8 35 267C36.7 269.2 38.4 271 38.7 271C38.9 271 37.7 269.2 36 267Z" fill="#FF4744"/>
<path d="M332.4 233.5C333.2 232.7 334.3 232 334.9 232C335.5 232 336 231.6 336 231.1C336 230.6 332.9 229.4 329 228.5C324.5 227.4 322 226.3 322 225.4C322 223.7 325.2 223.6 331.9 225.2C334.9 225.9 337 226.9 337 227.7C337 228.4 337.5 229 338 229C340.5 229 338.6 232.1 335.4 233.5C330.9 235.4 330.5 235.4 332.4 233.5Z" fill="#FF4744"/>
<path d="M175.6 224.6C176.1 223.4 176 222.9 175.3 223.3C173.6 224.4 161.7 189 163.3 187.4C164.1 186.6 234.2 204.2 237.3 206C238.3 206.6 239.5 206.8 239.9 206.5C240.4 206.3 241.4 206.8 242.1 207.8C243.4 209.3 243.3 209.4 241.8 208.1C240.7 207.3 240 207.2 240 207.8C240 208.4 241.2 209.6 242.8 210.4L245.5 211.9L242.9 212C241.5 212 238.4 212.6 235.9 213.4C233.5 214.2 227.7 215.8 223 217C218.3 218.2 213.4 219.7 212 220.3C210.6 220.8 208.6 221.6 207.5 222.1C200.8 224.9 187.1 226.5 181.3 225.2C178.4 224.5 176.8 224.6 176 225.4C175.2 226.2 175.1 226 175.6 224.6Z" fill="#FF4744"/>
<path d="M296.5 220.4C285 217.5 275.2 215.1 274.9 215C274.6 215 274.3 214.3 274.3 213.5C274.3 211.2 276.8 211.6 299.8 217.2C317.5 221.6 321 222.7 321 224.2C321 226.7 320.4 226.6 296.5 220.4Z" fill="#FF4744"/>
<path d="M331 217C331 214.9 332 214.6 335.8 215.6C339.4 216.6 338.5 219 334.5 219C331.7 219 331 218.6 331 217Z" fill="#FF4744"/>
<path d="M316 213C316 210.9 317 210.6 320.8 211.6C324.4 212.6 323.5 215 319.5 215C316.7 215 316 214.6 316 213Z" fill="#FF4744"/>
<path d="M277 82.9C275.1 82.5 261.4 79.6 246.5 76.6C231.7 73.5 214.3 69.9 208 68.6C201.7 67.3 186.4 64 174 61.5C161.6 58.9 150.6 56.4 149.5 55.9C146.2 54.6 149.9 54.9 156.9 56.5C160.4 57.4 163.5 57.9 163.7 57.6C164.3 57.1 152.7 54.4 137.3 51.5C130.1 50.2 120.4 48.1 116 47C111.5 45.8 107.3 45.1 106.7 45.3C106.1 45.5 108.3 46.2 111.4 46.9C114.6 47.6 116.9 48.4 116.7 48.6C116.4 48.9 113.5 48.5 110.1 47.7C103.1 46.1 101.7 44.7 96.8996 34.7L93.5996 27.9L96.1996 23.2C99.4996 17.3 101 16.8 101 21.4C101 23.9 100.6 25 99.4996 25C98.6996 25 97.9996 25.5 97.9996 26.1C97.9996 27.6 104.1 38.3 105.4 39.2C106.9 40.3 114.7 40.2 116.8 39.1C122.3 36.4 130.6 34.2 140.1 33C148.8 32 167.9 25.3 174.8 20.9C177.3 19.3 179.2 18 178.9 18C178.6 18 174.8 17.1 170.4 15.9C163.8 14.2 127.3 6.60002 116.4 4.70002C113.7 4.20002 113.1 4.50002 110.9 8.00002C109.6 10.2 108.2 12 107.9 12C107.5 12 106.9 13.1 106.6 14.5C106.1 16.5 105.3 17 103 17H100.1L105 8.80002C107.6 4.20002 110.5 0.400024 111.3 0.200024C112.9 -0.0999762 121.3 1.40002 176 12.2C227.9 22.3 239.4 24.8 244.4 26.9C247 28.1 249.8 29 250.6 29C253.9 29 251.8 32 247.8 33C245.4 33.7 239.9 36.1 235.5 38.4C231.1 40.8 225.3 43.2 222.5 43.9C219.8 44.6 213.9 46.9 209.5 49C201 53.1 192.2 56 188.3 56C186.9 56 186.2 56.4 186.5 57C186.9 57.6 185.8 58 183.8 58C181.2 58 180.8 58.3 182 59.1C183.1 59.8 182.3 59.9 179.1 59.4C176 59 174.9 59.1 175.4 59.9C175.8 60.5 176.5 60.8 176.9 60.5C177.4 60.3 179.2 60.5 181.1 61.1C183 61.6 186.1 62.3 188 62.6C189.9 62.9 193.3 63.6 195.5 64.2C197.7 64.8 200.9 65.4 202.5 65.7C204.2 66 211.2 67.5 218.2 69.1C225.2 70.7 236.4 73.1 243.2 74.5C263.8 78.6 279.3 81.9 282.5 82.9C285.3 83.8 285.3 83.8 283 83.8C281.6 83.8 278.9 83.4 277 82.9Z" fill="#FF4744"/>
<path d="M69 314C67.5 312.4 62.1 304.6 57.2 296.8C48.6 283.3 32.2 260.9 27.7 256.5L25.7 254.5L27.5 257.5C28.5 259.2 30.7 262.3 32.3 264.5L35.4 268.5L32.4 265.9C29.7 263.5 29.3 263.4 26.5 264.6C22.5 266.3 20.5 266.3 18.6 264.5C17.3 263.2 17.1 263.3 16.7 265.7C16.5 267.3 16.2 263.9 16.1 258.3L16 248.2L22.7 250C26.5 251 44.1 255.1 61.8 259.1C79.6 263.1 93.6 266.6 92.8 266.8C92.1 267 90.8 267.4 90 267.7C89.2 268.1 87.9 268.2 87.1 268.1C86.4 268 86.1 268.3 86.4 268.9C86.8 269.5 85.1 270.1 82.3 270.4C79.6 270.8 72.8 271.8 67 272.7C50.5 275.2 47 275.2 43.6 272.1C40.1 269 40.7 270 47.8 279.9C50.7 284.1 55.7 291.8 58.8 297C65.4 308.2 70.5 314.8 73.4 316C75.2 316.8 75.3 316.9 73.7 316.9C72.6 317 70.5 315.7 69 314Z" fill="#FF5856"/>
<path d="M160 309.1C161.9 307.4 164.9 305 166.5 303.9C169.1 302.1 169 302.3 166 305C164.1 306.7 161.2 309.1 159.5 310.2C156.9 311.9 157 311.8 160 309.1Z" fill="#FF5856"/>
<path d="M336 231.5C336 229.9 337.5 230.3 302 221.5C278.6 215.7 274.4 214.4 274.3 212.8C274.2 211.8 274.7 211 275.5 211C277.2 211 333.6 224.9 336.8 226.1C338.4 226.7 340.5 226.7 342.6 226C349.5 223.7 349.7 223.8 307.3 212.4C283.6 206 279.3 204.3 283.5 202.6C284.7 202.2 346.7 218.4 347.8 219.4C348.8 220.4 351.7 227.6 351.3 228.2C351.1 228.7 349.7 229 348.2 229C346.7 229 343.5 229.9 341.1 231C335.9 233.4 336 233.4 336 231.5Z" fill="#FF5856"/>
<path d="M167 192.1C167 191.5 167.9 191 169.1 191C170.2 191 170.8 190.6 170.5 190C170.2 189.4 170.6 189.3 171.5 189.6C172.4 190 172.9 190.8 172.7 191.4C172.2 192.8 167 193.5 167 192.1Z" fill="#FF5856"/>
<path d="M277.5 82.8999C275.9 82.4999 259 78.8999 240 74.9999C201.4 67.0999 183.8 63.1999 186 63.0999C186.8 63.0999 197.2 64.9999 209 67.4999C220.8 69.9999 240.4 74.0999 252.5 76.4999C275.1 81.1999 286 83.7999 282.5 83.7999C281.4 83.7999 279.2 83.3999 277.5 82.8999Z" fill="#FF5856"/>
<path d="M170 60.5C164 58.8 167.1 58.7 174 60.5C177 61.2 178.4 61.8 177 61.8C175.6 61.8 172.5 61.2 170 60.5Z" fill="#FF5856"/>
<path d="M158 58C156 57.4 155.9 57.2 157.5 57.2C158.6 57.2 160.9 57.6 162.5 58C165.2 58.7 165.2 58.8 163 58.8C161.6 58.8 159.4 58.4 158 58Z" fill="#FF5856"/>
<path d="M107 44.0999C102.8 43.0999 101.5 41.7999 97.5997 34.8999C93.3997 27.1999 93.3997 26.8999 101.2 15.3999C102.6 13.1999 105.4 8.89994 107.5 5.69994C110.9 0.499937 111.6 -0.100062 113.9 0.499938C115.3 0.899938 118.8 1.59994 121.5 1.99994C131.2 3.69994 165.6 10.8999 173.3 12.8999C179.9 14.5999 187.4 17.9999 184.6 17.9999C184.1 17.9999 184.3 18.6999 185 19.4999C186 20.6999 185.9 20.9999 184.3 20.9999C183.3 20.9999 180.3 22.2999 177.8 23.8999C170.9 28.2999 151.8 34.9999 143.1 35.9999C132.9 37.2999 125.1 39.3999 118.7 42.6999C117.2 43.4999 115.1 43.7999 113.9 43.4999C112.8 43.0999 111.4 43.1999 110.7 43.6999C110 44.1999 108.4 44.3999 107 44.0999Z" fill="#FF5856"/>
<path d="M336 231.4C336 229.4 334.7 229 303.9 221.4C288.8 217.8 275.9 214.3 275.3 213.7C273.4 212.3 273.7 208.5 275.8 206.9C276.7 206.1 279.1 204.7 281 203.9C284.4 202.4 285.1 202.5 303.5 207.6C314 210.4 328 214.2 334.8 216C347.8 219.5 349.1 220.3 350.6 226.4C351.2 228.9 351 229.1 349.4 228.6C348.3 228.3 344.9 229.1 341.8 230.4C337.2 232.3 336 232.5 336 231.4Z" fill="white"/>
</svg>
