<svg width="1600" height="2072" viewBox="0 0 1600 2072" fill="none" xmlns="http://www.w3.org/2000/svg">
<g clip-path="url(#clip0_23_114)">
<path d="M1595.59 300.176C1610.72 266.199 1618.29 233.284 1614.51 225.851C1612.09 221.087 1595.68 208.469 1572.26 193.312C1559.14 184.819 1595.6 172.756 1538.87 140.893C1482.13 109.03 1495.41 149.027 1481.48 142.331C1456.63 130.381 1437.8 123.208 1432.95 123.888C1425.39 124.949 1406.47 151.491 1391.34 185.468C1376.2 219.445 1368.63 252.36 1372.42 259.793C1376.2 267.227 1414.02 293.778 1459.41 319.269C1504.8 344.759 1546.41 362.817 1553.97 361.755C1561.54 360.695 1580.45 334.152 1595.59 300.176Z" stroke="#F5F5F5" stroke-width="10" stroke-linecap="round" stroke-linejoin="round"/>
<path d="M1476.44 281.045C1495.24 291.604 1518.1 283.051 1527.5 261.94C1536.91 240.829 1529.29 215.157 1510.49 204.599C1491.69 194.04 1468.82 202.593 1459.42 223.704C1450.02 244.815 1457.64 270.486 1476.44 281.045Z" stroke="#F5F5F5" stroke-width="10" stroke-linecap="round" stroke-linejoin="round"/>
</g>
<path d="M193.542 74.9547H91.4583C74.5446 74.9547 60.8333 90.3502 60.8333 109.341V223.964C60.8333 242.955 74.5446 258.351 91.4583 258.351H193.542C210.455 258.351 224.167 242.955 224.167 223.964V109.341C224.167 90.3502 210.455 74.9547 193.542 74.9547Z" stroke="#F5F5F5" stroke-width="10" stroke-linecap="round" stroke-linejoin="round"/>
<path d="M60.8333 212.502L104.657 163.295C108.643 158.819 115.107 158.819 119.093 163.295L152.708 201.039M152.708 201.039L181.219 169.026C185.206 164.55 191.669 164.55 195.656 169.026L224.167 201.039M152.708 201.039L175.677 226.829" stroke="#F5F5F5" stroke-width="10" stroke-linecap="round" stroke-linejoin="round"/>
<path d="M193.542 333.206H91.4583C74.5446 333.206 60.8333 348.602 60.8333 367.593V482.215C60.8333 501.207 74.5446 516.602 91.4583 516.602H193.542C210.455 516.602 224.167 501.207 224.167 482.215V367.593C224.167 348.602 210.455 333.206 193.542 333.206Z" stroke="#F5F5F5" stroke-width="10" stroke-linecap="round" stroke-linejoin="round"/>
<path d="M60.8333 470.753L104.657 421.547C108.643 417.071 115.107 417.071 119.093 421.547L152.708 459.291M152.708 459.291L181.219 427.278C185.206 422.802 191.669 422.802 195.656 427.278L224.167 459.291M152.708 459.291L175.677 485.081" stroke="#F5F5F5" stroke-width="10" stroke-linecap="round" stroke-linejoin="round"/>
<g clip-path="url(#clip1_23_114)">
<path d="M280.388 997.26C266.928 969.442 246.482 946.287 221.393 931.013C204.666 920.835 185.869 914.165 165.771 911.979C145.674 909.792 126.145 912.291 108.062 918.692C89.9797 925.093 73.3449 935.381 58.9554 948.756C30.1811 975.49 10.3607 1014.62 5.93015 1059.63L5.92944 1059.63C5.87746 1060.19 5.82549 1060.75 5.77827 1061.29C4.7394 1073.33 5.44161 1083.81 7.57751 1092.82C9.70646 1101.81 13.3031 1109.32 17.8829 1115.14C20.9332 1119.02 24.407 1122.15 28.0927 1124.51C33.0136 1127.67 38.2913 1129.46 43.5099 1130.03C48.1706 1130.53 52.7844 1130.07 57.1213 1128.68C61.4545 1127.28 65.5254 1124.95 68.9845 1121.63C78.1567 1112.84 90.6547 1108.29 103.939 1109.73C113.844 1110.81 122.685 1115.17 129.807 1121.77C136.922 1128.37 142.275 1137.23 145.059 1147.22C146.917 1153.88 147.645 1161.05 147.005 1168.46C146.75 1171.45 146.049 1174.52 145.064 1177.86C144.091 1181.19 142.835 1184.76 141.666 1188.73C140.567 1192.47 139.873 1196.1 139.571 1199.6C138.997 1206.07 139.851 1212.14 141.889 1217.31C143.914 1222.49 147.06 1226.68 150.622 1229.79C152.998 1231.86 155.562 1233.49 158.191 1234.73C161.699 1236.37 165.319 1237.35 168.879 1237.74C172.214 1238.1 175.506 1237.96 178.679 1237.22C209.727 1230.03 237.751 1212.3 258.871 1187C279.984 1161.71 294.173 1128.76 297.384 1091.47C300.312 1057.61 293.844 1025.08 280.388 997.26ZM246.479 1173.96C227.792 1196.37 202.863 1212.17 175.25 1218.56C173.98 1218.85 172.297 1218.97 170.516 1218.77C168.366 1218.54 166.081 1217.87 164.086 1216.81C162.078 1215.76 160.382 1214.35 159.135 1212.7C158.302 1211.59 157.651 1210.37 157.173 1208.93C156.544 1207 156.196 1204.64 156.465 1201.43C156.633 1199.49 157.039 1197.25 157.791 1194.69C158.741 1191.43 160.003 1187.85 161.188 1183.83C162.366 1179.81 163.466 1175.32 163.899 1170.3C165.196 1155.32 162.329 1140.87 156.365 1128.55C150.401 1116.22 141.35 1105.97 130.223 1099.2C122.809 1094.68 114.467 1091.72 105.575 1090.76C87.8566 1088.83 70.7329 1094.89 57.9597 1107.14C56.5351 1108.5 54.6532 1109.64 52.4424 1110.36C50.2399 1111.06 47.728 1111.34 45.1463 1111.06C41.8934 1110.7 38.5505 1109.48 35.4751 1107.25C32.401 1105.01 29.5496 1101.78 27.2317 1097.12C25.6896 1094.01 24.3877 1090.25 23.5054 1085.7C22.3235 1079.64 21.8937 1072.17 22.6733 1063.13C22.7138 1062.66 22.7585 1062.19 22.8034 1061.72L22.803 1061.72C25.7588 1031.71 36.3786 1004.77 52.2458 983.158C68.1205 961.555 89.2396 945.336 113.165 936.871C129.12 931.225 146.322 929.013 164.134 930.95C190.845 933.861 214.803 945.648 234.03 963.485C253.253 981.321 267.691 1005.21 275.226 1032.22C280.25 1050.23 282.213 1069.63 280.487 1089.63C277.632 1122.63 265.168 1151.55 246.479 1173.96Z" fill="#F5F5F5"/>
<path d="M227.225 1107.23C223.828 1105.16 220.001 1103.8 215.937 1103.36C209.841 1102.69 203.931 1104.17 198.91 1107.24C193.887 1110.3 189.714 1114.95 186.949 1120.67C185.104 1124.48 183.898 1128.78 183.505 1133.34C182.91 1140.19 184.227 1146.83 186.957 1152.46C189.686 1158.1 193.825 1162.79 198.923 1165.89C202.318 1167.97 206.147 1169.32 210.207 1169.76C216.307 1170.42 222.217 1168.95 227.237 1165.88C232.257 1162.82 236.433 1158.17 239.199 1152.45C241.044 1148.64 242.249 1144.34 242.643 1139.77C243.237 1132.93 241.921 1126.29 239.191 1120.66C236.46 1115.02 232.322 1110.33 227.225 1107.23ZM224.537 1147.17C222.713 1149.65 220.256 1151.52 217.505 1152.48C215.67 1153.12 213.703 1153.38 211.639 1153.16C208.555 1152.82 205.84 1151.48 203.627 1149.43C201.418 1147.38 199.751 1144.63 198.892 1141.53C198.318 1139.47 198.091 1137.27 198.291 1134.95C198.593 1131.49 199.786 1128.44 201.61 1125.95C203.435 1123.47 205.891 1121.6 208.643 1120.64C210.478 1119.99 212.445 1119.74 214.504 1119.96C217.593 1120.3 220.307 1121.64 222.525 1123.69C224.729 1125.74 226.397 1128.5 227.256 1131.59C227.831 1133.65 228.057 1135.85 227.858 1138.17C227.554 1141.63 226.362 1144.68 224.537 1147.17Z" fill="#F5F5F5"/>
<path d="M82.576 1013.44C70.6222 1012.14 59.9918 1021.97 58.8331 1035.39C57.6752 1048.81 66.4272 1060.75 78.381 1062.05C90.3387 1063.35 100.97 1053.52 102.128 1040.1C103.287 1026.68 94.5338 1014.74 82.576 1013.44Z" fill="#F5F5F5"/>
<path d="M124.721 969.751C114.323 968.62 105.075 977.17 104.067 988.845C103.059 1000.52 110.675 1010.91 121.072 1012.04C131.473 1013.17 140.723 1004.62 141.731 992.943C142.738 981.268 135.123 970.883 124.721 969.751Z" fill="#F5F5F5"/>
<path d="M179.654 969.345C170.326 968.33 162.026 976.002 161.122 986.477C160.218 996.952 167.051 1006.27 176.38 1007.29C185.709 1008.3 194.009 1000.63 194.912 990.153C195.816 979.678 188.983 970.36 179.654 969.345Z" fill="#F5F5F5"/>
<path d="M215.674 1037.79C223.985 1038.7 231.374 1031.86 232.179 1022.53C232.984 1013.2 226.901 1004.91 218.59 1004C210.279 1003.1 202.891 1009.93 202.086 1019.26C201.281 1028.59 207.363 1036.89 215.674 1037.79Z" fill="#F5F5F5"/>
<path d="M221.924 1066.5C221.295 1073.8 226.057 1080.29 232.555 1080.99C239.056 1081.7 244.835 1076.36 245.465 1069.06C246.095 1061.76 241.336 1055.28 234.835 1054.57C228.337 1053.86 222.554 1059.2 221.924 1066.5Z" fill="#F5F5F5"/>
</g>
<path d="M1455.01 1529.37C1453.94 1529.38 1452.87 1529.15 1451.87 1528.7C1450.88 1528.25 1449.97 1527.58 1449.2 1526.73C1448.33 1525.76 1447.65 1524.58 1447.23 1523.28C1446.8 1521.98 1446.64 1520.59 1446.75 1519.21L1450.21 1471.06C1450.36 1468.83 1451.23 1466.73 1452.67 1465.17L1576.17 1326.5C1583.05 1319.26 1592.21 1315.38 1601.63 1315.71C1610.99 1315.8 1619.97 1319.87 1626.76 1327.12C1633.26 1334.62 1637 1344.6 1637.23 1355.06C1637.45 1365.53 1634.15 1375.7 1627.98 1383.55L1504.37 1522.85C1502.98 1524.39 1501.17 1525.37 1499.23 1525.6L1455.79 1529.99L1455.01 1529.37ZM1466.18 1475.95L1463.83 1510.31L1494.43 1507.17L1616.15 1370.26C1618.52 1367.1 1620.04 1363.25 1620.52 1359.16C1621 1355.06 1620.42 1350.9 1618.86 1347.16C1617.29 1343.43 1614.81 1340.27 1611.69 1338.08C1608.58 1335.88 1604.97 1334.73 1601.3 1334.77C1598.88 1334.6 1596.46 1334.98 1594.17 1335.88C1591.89 1336.79 1589.79 1338.2 1588.01 1340.04L1466.18 1475.95Z" fill="#F5F5F5"/>
<defs>
<clipPath id="clip0_23_114">
<rect width="312.343" height="334.752" fill="white" transform="matrix(0.87191 0.489665 -0.406905 0.913471 1431.08 0.715801)"/>
</clipPath>
<clipPath id="clip1_23_114">
<rect width="293.192" height="328.49" fill="white" transform="matrix(0.994134 0.108157 -0.085974 0.996297 20.2416 893.686)"/>
</clipPath>
</defs>
</svg>
