<svg width="80" height="80" viewBox="0 0 80 80" fill="none" xmlns="http://www.w3.org/2000/svg">
<g clip-path="url(#clip0_3_54)">
<path d="M0 40C0 50.6087 4.21427 60.7828 11.7157 68.2843C19.2172 75.7857 29.3913 80 40 80C50.6087 80 60.7828 75.7857 68.2843 68.2843C75.7857 60.7828 80 50.6087 80 40C80 29.3913 75.7857 19.2172 68.2843 11.7157C60.7828 4.21427 50.6087 0 40 0C29.3913 0 19.2172 4.21427 11.7157 11.7157C4.21427 19.2172 0 29.3913 0 40Z" fill="#FEEAE9"/>
<path d="M59.6858 10.7634C59.4205 10.7634 59.1698 10.8156 58.9295 10.8914C58.1684 9.7972 56.9058 9.07782 55.4719 9.07782C54.038 9.07782 52.7753 9.7972 52.0142 10.8914C51.7739 10.8156 51.5233 10.7634 51.258 10.7634C49.8616 10.7634 48.7295 11.8955 48.7295 13.2919H62.2142C62.2142 11.8955 61.0822 10.7634 59.6858 10.7634Z" fill="#F8756F"/>
<path d="M47.3909 22.2959C47.1772 22.2959 46.9752 22.338 46.7814 22.3991C46.168 21.5173 45.1505 20.9375 43.9948 20.9375C42.8392 20.9375 41.8217 21.5172 41.2083 22.3991C41.0147 22.338 40.8127 22.2959 40.5988 22.2959C39.4734 22.2959 38.5611 23.2081 38.5611 24.3336H49.4281C49.4286 23.2081 48.5163 22.2959 47.3909 22.2959Z" fill="#F64740"/>
<path d="M24.2275 13.778C24.2275 11.2837 26.2495 9.26187 28.7436 9.26187C29.12 9.26187 29.48 9.3214 29.8295 9.40812C31.008 8.13547 32.6788 7.32625 34.55 7.32625C38.1131 7.32625 41.0016 10.2147 41.0016 13.7778H24.2275V13.778Z" fill="#F8756F"/>
<path d="M33.663 16.0509C33.663 14.1522 35.1747 12.6128 37.0395 12.6128C37.3209 12.6128 37.59 12.6581 37.8514 12.7242C38.7325 11.7553 39.9817 11.1394 41.3808 11.1394C44.0447 11.1394 46.2044 13.3384 46.2044 16.0509H33.663Z" fill="#F8756F"/>
<path d="M31.4039 21.7266C31.4039 20.7772 32.1598 20.0075 33.0922 20.0075C33.233 20.0075 33.3675 20.0302 33.4981 20.0631C33.9386 19.5788 34.5633 19.2706 35.2628 19.2706C36.5948 19.2706 37.6745 20.3702 37.6745 21.7264H31.4039V21.7266Z" fill="#F64740"/>
<path d="M80 40C80 36.7042 79.5933 33.5047 78.8416 30.4406L78.3866 30.1623C63.6458 30.1623 50.052 40 32.7083 40C18.5775 40 57.0378 41.6141 79.9559 41.742C79.9808 41.1639 80 40.5842 80 40Z" fill="#F48E8A"/>
<path d="M0.149841 40C0.149841 36.7042 0.55656 33.5047 1.30828 30.4406L1.76328 30.1623C16.5041 30.1623 17.4487 40 34.7925 40C48.9234 40 23.112 41.6141 0.193904 41.742C0.16906 41.1639 0.149841 40.5842 0.149841 40Z" fill="#F8756F"/>
<path d="M26.2623 41.2683C26.1923 41.2683 26.1229 41.2546 26.0581 41.2278C25.9934 41.201 25.9345 41.1617 25.885 41.1122C25.8354 41.0627 25.7961 41.0039 25.7693 40.9392C25.7424 40.8744 25.7286 40.8051 25.7286 40.735V34.9906C25.7286 34.6961 25.9673 34.4573 26.2623 34.4573C26.5573 34.4573 26.7961 34.6961 26.7961 34.9906V40.735C26.7961 40.8051 26.7822 40.8744 26.7554 40.9392C26.7286 41.0039 26.6892 41.0627 26.6397 41.1122C26.5901 41.1617 26.5313 41.201 26.4665 41.2278C26.4018 41.2546 26.3324 41.2683 26.2623 41.2683Z" fill="#CE2620"/>
<path d="M30.0466 33.5008C30.0466 36.405 28.3523 37.8628 26.2623 37.8628C24.1723 37.8628 22.4781 36.405 22.4781 33.5008C22.4781 30.5966 24.7962 19.2708 26.2623 19.2708C27.7284 19.2708 30.0466 30.5966 30.0466 33.5008Z" fill="#F64740"/>
<path d="M26.2622 19.2708C25.9719 19.2708 25.6478 19.7198 25.3153 20.4548C26.5114 22.2663 28.0587 31.2161 28.0587 33.702C28.0587 36.1308 26.9787 37.4981 25.5448 37.7984C25.7775 37.8388 26.0164 37.8627 26.2622 37.8627C28.3522 37.8627 30.0466 36.4048 30.0466 33.5006C30.0466 30.5964 27.7283 19.2708 26.2622 19.2708Z" fill="#EC5F59"/>
<path d="M40 80C62.0914 80 80 62.0914 80 40H0C0 62.0914 17.9086 80 40 80Z" fill="#FC5C56"/>
<path d="M6.77156 45.5306C-3.4389 46.9781 27.7263 52.8441 27.7263 52.8441C27.7263 52.8441 73.4469 57.1428 74.7917 57.1428C75.0139 57.1428 75.4758 57.2152 76.0683 57.3133C78.0078 53.28 79.2883 48.8709 79.7761 44.2256C60.2083 48.125 38.4375 41.0417 6.77156 45.5306Z" fill="#FE736D"/>
<path d="M40 80C58.1861 80 73.5273 67.8592 78.3866 51.2436C47.1548 51.108 28.8919 42.5542 0.470612 46.1464C3.4278 65.3197 19.9989 80 40 80Z" fill="#EE5B55"/>
<path d="M2.31641 53.4258C5.06609 61.1423 10.1183 67.7608 16.6459 72.4648L69.597 66.9073C72.5376 63.6728 74.9287 59.9785 76.6752 55.9711C52.9575 55.3944 19.6202 51.3661 2.31641 53.4258Z" fill="#E84842"/>
<path d="M40 80C55.9545 80 69.7177 70.6548 76.1366 57.1428C52.0931 57.1428 28.5534 57.1619 7.97 63.9603C15.2655 73.698 26.8961 80 40 80Z" fill="#E23932"/>
<path d="M56.2503 43.3594C56.1482 43.3594 56.0472 43.3394 55.9529 43.3003C55.8586 43.2613 55.7729 43.2041 55.7007 43.132C55.6285 43.0598 55.5712 42.9742 55.5321 42.8799C55.493 42.7856 55.4728 42.6846 55.4728 42.5825V34.2145C55.4728 34.1125 55.493 34.0114 55.532 33.9171C55.5711 33.8228 55.6284 33.7372 55.7006 33.665C55.7728 33.5929 55.8585 33.5357 55.9528 33.4967C56.0472 33.4576 56.1482 33.4376 56.2503 33.4377C56.3524 33.4376 56.4535 33.4576 56.5478 33.4967C56.6421 33.5357 56.7278 33.5929 56.8 33.665C56.8722 33.7372 56.9295 33.8228 56.9686 33.9171C57.0077 34.0114 57.0278 34.1125 57.0278 34.2145V42.5825C57.0278 42.6846 57.0076 42.7856 56.9685 42.8799C56.9294 42.9742 56.8722 43.0598 56.8 43.132C56.7278 43.2041 56.6421 43.2613 56.5477 43.3003C56.4534 43.3394 56.3524 43.3594 56.2503 43.3594Z" fill="#CE2620"/>
<path d="M61.7626 32.0442C61.7626 36.2748 59.2945 38.3984 56.25 38.3984C53.2055 38.3984 50.7373 36.2748 50.7373 32.0442C50.7373 27.8136 54.1142 11.315 56.25 11.315C58.3858 11.315 61.7626 27.8136 61.7626 32.0442Z" fill="#F64740"/>
<path d="M56.25 11.315C55.827 11.315 55.355 11.9692 54.8706 13.04C56.613 15.6788 58.8672 28.7163 58.8672 32.3375C58.8672 35.8755 57.2939 37.8673 55.205 38.3048C55.5439 38.3634 55.892 38.3984 56.25 38.3984C59.2945 38.3984 61.7627 36.2748 61.7627 32.0442C61.7627 27.8136 58.3858 11.315 56.25 11.315Z" fill="#EC5F59"/>
<path d="M17.5005 41.7891C17.4105 41.7891 17.3214 41.7714 17.2383 41.737C17.1551 41.7026 17.0796 41.6522 17.016 41.5886C16.9523 41.525 16.9018 41.4495 16.8674 41.3664C16.8329 41.2833 16.8152 41.1942 16.8152 41.1042V33.7277C16.8152 33.3495 17.1219 33.0428 17.5005 33.0428C17.8791 33.0428 18.1858 33.3495 18.1858 33.7277V41.1042C18.1858 41.1942 18.1681 41.2833 18.1336 41.3664C18.0992 41.4495 18.0487 41.525 17.985 41.5886C17.9214 41.6522 17.8458 41.7027 17.7627 41.7371C17.6795 41.7715 17.5904 41.7891 17.5005 41.7891Z" fill="#CE2620"/>
<path d="M22.3597 31.8147C22.3597 35.5441 20.1841 37.4161 17.5002 37.4161C14.8162 37.4161 12.6406 35.5441 12.6406 31.8147C12.6406 28.0853 15.6175 13.5416 17.5002 13.5416C19.3828 13.5416 22.3597 28.0853 22.3597 31.8147Z" fill="#F64740"/>
<path d="M17.5003 13.5416C17.1275 13.5416 16.7114 14.1181 16.2844 15.0622C17.8203 17.3883 19.8073 28.8809 19.8073 32.0733C19.8073 35.192 18.4205 36.9478 16.5792 37.3336C16.878 37.3853 17.1848 37.4161 17.5005 37.4161C20.1844 37.4161 22.36 35.5442 22.36 31.8147C22.36 28.0852 19.383 13.5416 17.5003 13.5416Z" fill="#EC5F59"/>
<path d="M71.9067 15.8808C71.8975 15.8808 71.8887 15.8791 71.8795 15.8791C70.3077 15.8791 68.9234 16.6677 68.0891 17.8672C67.8256 17.7841 67.5508 17.7269 67.26 17.7269C65.7292 17.7269 64.4883 18.9678 64.4883 20.4986H74.922C74.0243 18.8918 73.0168 17.3489 71.9067 15.8808Z" fill="#F64740"/>
<path d="M26.6392 71.3958C26.6392 71.6721 26.749 71.937 26.9443 72.1324C27.1397 72.3277 27.4047 72.4375 27.6809 72.4375C27.9572 72.4375 28.2222 72.3277 28.4175 72.1324C28.6129 71.937 28.7227 71.6721 28.7227 71.3958C28.7227 71.1195 28.6129 70.8545 28.4175 70.6592C28.2222 70.4638 27.9572 70.3541 27.6809 70.3541C27.4047 70.3541 27.1397 70.4638 26.9443 70.6592C26.749 70.8545 26.6392 71.1195 26.6392 71.3958Z" fill="#E84842"/>
<path d="M29.8183 66.5105C29.8183 66.7867 29.928 67.0517 30.1234 67.2471C30.3188 67.4424 30.5837 67.5522 30.86 67.5522C31.1363 67.5522 31.4013 67.4424 31.5966 67.2471C31.792 67.0517 31.9017 66.7867 31.9017 66.5105C31.9017 66.2342 31.792 65.9692 31.5966 65.7739C31.4013 65.5785 31.1363 65.4688 30.86 65.4688C30.5837 65.4688 30.3188 65.5785 30.1234 65.7739C29.928 65.9692 29.8183 66.2342 29.8183 66.5105Z" fill="#E84842"/>
<path d="M45 65.7795C45 66.0558 45.1098 66.3208 45.3051 66.5161C45.5005 66.7115 45.7654 66.8212 46.0417 66.8212C46.318 66.8212 46.583 66.7115 46.7783 66.5161C46.9737 66.3208 47.0834 66.0558 47.0834 65.7795C47.0834 65.5032 46.9737 65.2383 46.7783 65.0429C46.583 64.8476 46.318 64.7378 46.0417 64.7378C45.7654 64.7378 45.5005 64.8476 45.3051 65.0429C45.1098 65.2383 45 65.5032 45 65.7795Z" fill="#E84842"/>
<path d="M49.6956 61.8302C49.6956 62.1064 49.8054 62.3714 50.0007 62.5668C50.1961 62.7621 50.4611 62.8719 50.7373 62.8719C51.0136 62.8719 51.2786 62.7621 51.4739 62.5668C51.6693 62.3714 51.7791 62.1064 51.7791 61.8302C51.7791 61.5539 51.6693 61.2889 51.4739 61.0936C51.2786 60.8982 51.0136 60.7884 50.7373 60.7884C50.4611 60.7884 50.1961 60.8982 50.0007 61.0936C49.8054 61.2889 49.6956 61.5539 49.6956 61.8302Z" fill="#E84842"/>
<path d="M40.5374 73.5066C40.5374 73.7828 40.6471 74.0478 40.8425 74.2432C41.0378 74.4385 41.3028 74.5483 41.5791 74.5483C41.8554 74.5483 42.1203 74.4385 42.3157 74.2432C42.511 74.0478 42.6208 73.7828 42.6208 73.5066C42.6208 73.2303 42.511 72.9653 42.3157 72.77C42.1203 72.5746 41.8554 72.4648 41.5791 72.4648C41.3028 72.4648 41.0378 72.5746 40.8425 72.77C40.6471 72.9653 40.5374 73.2303 40.5374 73.5066Z" fill="#EE5B55"/>
<path d="M35.3125 64.7378C35.3125 65.0141 35.4223 65.2791 35.6176 65.4744C35.813 65.6698 36.0779 65.7795 36.3542 65.7795C36.6305 65.7795 36.8955 65.6698 37.0908 65.4744C37.2862 65.2791 37.3959 65.0141 37.3959 64.7378C37.3959 64.4615 37.2862 64.1966 37.0908 64.0012C36.8955 63.8058 36.6305 63.6961 36.3542 63.6961C36.0779 63.6961 35.813 63.8058 35.6176 64.0012C35.4223 64.1966 35.3125 64.4615 35.3125 64.7378Z" fill="#EE5B55"/>
<path d="M15.1228 47.4661C15.1228 47.6201 15.184 47.7679 15.2929 47.8768C15.4018 47.9857 15.5496 48.0469 15.7036 48.0469C15.8576 48.0469 16.0053 47.9857 16.1143 47.8768C16.2232 47.7679 16.2844 47.6201 16.2844 47.4661C16.2844 47.3121 16.2232 47.1643 16.1143 47.0554C16.0053 46.9465 15.8576 46.8853 15.7036 46.8853C15.5496 46.8853 15.4018 46.9465 15.2929 47.0554C15.184 47.1643 15.1228 47.3121 15.1228 47.4661Z" fill="#FC5C56"/>
<path d="M7.38922 49.6048C7.38922 49.7589 7.45041 49.9066 7.55933 50.0155C7.66825 50.1244 7.81597 50.1856 7.97 50.1856C8.12404 50.1856 8.27176 50.1244 8.38068 50.0155C8.48959 49.9066 8.55078 49.7589 8.55078 49.6048C8.55078 49.4508 8.48959 49.3031 8.38068 49.1942C8.27176 49.0853 8.12404 49.0241 7.97 49.0241C7.81597 49.0241 7.66825 49.0853 7.55933 49.1942C7.45041 49.3031 7.38922 49.4508 7.38922 49.6048Z" fill="#FE736D"/>
<path d="M22.3597 50.6466C22.3597 50.8006 22.4209 50.9483 22.5298 51.0572C22.6387 51.1662 22.7864 51.2273 22.9405 51.2273C23.0945 51.2273 23.2422 51.1662 23.3511 51.0572C23.4601 50.9483 23.5212 50.8006 23.5212 50.6466C23.5212 50.4925 23.4601 50.3448 23.3511 50.2359C23.2422 50.127 23.0945 50.0658 22.9405 50.0658C22.7864 50.0658 22.6387 50.127 22.5298 50.2359C22.4209 50.3448 22.3597 50.4925 22.3597 50.6466Z" fill="#FE736D"/>
<path d="M12.06 50.1856C12.06 50.3397 12.1212 50.4874 12.2301 50.5963C12.339 50.7052 12.4867 50.7664 12.6408 50.7664C12.7948 50.7664 12.9425 50.7052 13.0515 50.5963C13.1604 50.4874 13.2216 50.3397 13.2216 50.1856C13.2216 50.0316 13.1604 49.8839 13.0515 49.775C12.9425 49.666 12.7948 49.6048 12.6408 49.6048C12.4867 49.6048 12.339 49.666 12.2301 49.775C12.1212 49.8839 12.06 50.0316 12.06 50.1856Z" fill="#FE736D"/>
<path d="M30.2792 51.2272C30.2792 51.3812 30.3404 51.5289 30.4493 51.6379C30.5583 51.7468 30.706 51.808 30.86 51.808C31.014 51.808 31.1618 51.7468 31.2707 51.6379C31.3796 51.5289 31.4408 51.3812 31.4408 51.2272C31.4408 51.0732 31.3796 50.9254 31.2707 50.8165C31.1618 50.7076 31.014 50.6464 30.86 50.6464C30.706 50.6464 30.5583 50.7076 30.4493 50.8165C30.3404 50.9254 30.2792 51.0732 30.2792 51.2272Z" fill="#FC5C56"/>
<path d="M27.1002 48.6277C27.1002 48.7817 27.1613 48.9294 27.2703 49.0383C27.3792 49.1472 27.5269 49.2084 27.6809 49.2084C27.835 49.2084 27.9827 49.1472 28.0916 49.0383C28.2005 48.9294 28.2617 48.7817 28.2617 48.6277C28.2617 48.4736 28.2005 48.3259 28.0916 48.217C27.9827 48.1081 27.835 48.0469 27.6809 48.0469C27.5269 48.0469 27.3792 48.1081 27.2703 48.217C27.1613 48.3259 27.1002 48.4736 27.1002 48.6277Z" fill="#FC5C56"/>
<path d="M40.5374 50.1856C40.5374 50.3397 40.5985 50.4874 40.7075 50.5963C40.8164 50.7052 40.9641 50.7664 41.1181 50.7664C41.2722 50.7664 41.4199 50.7052 41.5288 50.5963C41.6377 50.4874 41.6989 50.3397 41.6989 50.1856C41.6989 50.0316 41.6377 49.8839 41.5288 49.775C41.4199 49.666 41.2722 49.6048 41.1181 49.6048C40.9641 49.6048 40.8164 49.666 40.7075 49.775C40.5985 49.8839 40.5374 50.0316 40.5374 50.1856Z" fill="#FC5C56"/>
<path d="M36.815 51.2272C36.815 51.3035 36.83 51.379 36.8592 51.4494C36.8884 51.5199 36.9312 51.5839 36.9851 51.6379C37.039 51.6918 37.1031 51.7346 37.1735 51.7638C37.244 51.7929 37.3195 51.808 37.3958 51.808C37.4721 51.808 37.5476 51.7929 37.618 51.7638C37.6885 51.7346 37.7525 51.6918 37.8065 51.6379C37.8604 51.5839 37.9032 51.5199 37.9324 51.4494C37.9615 51.379 37.9766 51.3035 37.9766 51.2272C37.9766 51.1509 37.9615 51.0754 37.9324 51.0049C37.9032 50.9345 37.8604 50.8704 37.8065 50.8165C37.7525 50.7626 37.6885 50.7198 37.618 50.6906C37.5476 50.6614 37.4721 50.6464 37.3958 50.6464C37.3195 50.6464 37.244 50.6614 37.1735 50.6906C37.1031 50.7198 37.039 50.7626 36.9851 50.8165C36.9312 50.8704 36.8884 50.9345 36.8592 51.0049C36.83 51.0754 36.815 51.1509 36.815 51.2272Z" fill="#FE736D"/>
<path d="M45 51.2272C45 51.3035 45.015 51.379 45.0442 51.4494C45.0734 51.5199 45.1162 51.5839 45.1701 51.6379C45.224 51.6918 45.2881 51.7346 45.3585 51.7638C45.429 51.7929 45.5045 51.808 45.5808 51.808C45.6571 51.808 45.7326 51.7929 45.803 51.7638C45.8735 51.7346 45.9375 51.6918 45.9915 51.6379C46.0454 51.5839 46.0882 51.5199 46.1174 51.4494C46.1465 51.379 46.1616 51.3035 46.1616 51.2272C46.1616 51.1509 46.1465 51.0754 46.1174 51.0049C46.0882 50.9345 46.0454 50.8704 45.9915 50.8165C45.9375 50.7626 45.8735 50.7198 45.803 50.6906C45.7326 50.6614 45.6571 50.6464 45.5808 50.6464C45.5045 50.6464 45.429 50.6614 45.3585 50.6906C45.2881 50.7198 45.224 50.7626 45.1701 50.8165C45.1162 50.8704 45.0734 50.9345 45.0442 51.0049C45.015 51.0754 45 51.1509 45 51.2272Z" fill="#FE736D"/>
<path d="M54.892 52.8442C54.892 52.9983 54.9532 53.146 55.0621 53.2549C55.1711 53.3638 55.3188 53.425 55.4728 53.425C55.6268 53.425 55.7746 53.3638 55.8835 53.2549C55.9924 53.146 56.0536 52.9983 56.0536 52.8442C56.0536 52.6902 55.9924 52.5425 55.8835 52.4335C55.7746 52.3246 55.6268 52.2634 55.4728 52.2634C55.3188 52.2634 55.1711 52.3246 55.0621 52.4335C54.9532 52.5425 54.892 52.6902 54.892 52.8442Z" fill="#FC5C56"/>
<path d="M62.6602 52.5781C62.6602 52.7322 62.7213 52.8799 62.8303 52.9888C62.9392 53.0977 63.0869 53.1589 63.2409 53.1589C63.395 53.1589 63.5427 53.0977 63.6516 52.9888C63.7605 52.8799 63.8217 52.7322 63.8217 52.5781C63.8217 52.4241 63.7605 52.2764 63.6516 52.1675C63.5427 52.0585 63.395 51.9973 63.2409 51.9973C63.0869 51.9973 62.9392 52.0585 62.8303 52.1675C62.7213 52.2764 62.6602 52.4241 62.6602 52.5781Z" fill="#FE736D"/>
<path d="M67.388 53.4248C67.388 53.5789 67.4492 53.7266 67.5581 53.8355C67.667 53.9444 67.8147 54.0056 67.9688 54.0056C68.1228 54.0056 68.2705 53.9444 68.3794 53.8355C68.4883 53.7266 68.5495 53.5789 68.5495 53.4248C68.5495 53.2708 68.4883 53.1231 68.3794 53.0142C68.2705 52.9053 68.1228 52.8441 67.9688 52.8441C67.8147 52.8441 67.667 52.9053 67.5581 53.0142C67.4492 53.1231 67.388 53.2708 67.388 53.4248Z" fill="#FC5C56"/>
<path d="M51.875 70.3541C51.875 70.6303 51.9848 70.8953 52.1801 71.0907C52.3755 71.286 52.6404 71.3958 52.9167 71.3958C53.193 71.3958 53.458 71.286 53.6533 71.0907C53.8487 70.8953 53.9584 70.6303 53.9584 70.3541C53.9584 70.0778 53.8487 69.8128 53.6533 69.6175C53.458 69.4221 53.193 69.3123 52.9167 69.3123C52.6404 69.3123 52.3755 69.4221 52.1801 69.6175C51.9848 69.8128 51.875 70.0778 51.875 70.3541Z" fill="#E84842"/>
<path d="M61.6186 65.4688C61.6186 65.745 61.7283 66.01 61.9237 66.2054C62.1191 66.4007 62.384 66.5105 62.6603 66.5105C62.9366 66.5105 63.2016 66.4007 63.3969 66.2054C63.5923 66.01 63.702 65.745 63.702 65.4688C63.702 65.1925 63.5923 64.9275 63.3969 64.7321C63.2016 64.5368 62.9366 64.427 62.6603 64.427C62.384 64.427 62.1191 64.5368 61.9237 64.7321C61.7283 64.9275 61.6186 65.1925 61.6186 65.4688Z" fill="#E84842"/>
<path d="M57.275 61.9792C57.275 62.2555 57.3847 62.5205 57.5801 62.7158C57.7755 62.9112 58.0404 63.0209 58.3167 63.0209C58.593 63.0209 58.858 62.9112 59.0533 62.7158C59.2487 62.5205 59.3584 62.2555 59.3584 61.9792C59.3584 61.7029 59.2487 61.438 59.0533 61.2426C58.858 61.0473 58.593 60.9375 58.3167 60.9375C58.0404 60.9375 57.7755 61.0473 57.5801 61.2426C57.3847 61.438 57.275 61.7029 57.275 61.9792Z" fill="#EE5B55"/>
<path d="M64.7436 60.7886C64.7436 61.0649 64.8533 61.3298 65.0487 61.5252C65.2441 61.7206 65.509 61.8303 65.7853 61.8303C66.0616 61.8303 66.3266 61.7206 66.5219 61.5252C66.7173 61.3298 66.827 61.0649 66.827 60.7886C66.827 60.5123 66.7173 60.2473 66.5219 60.052C66.3266 59.8566 66.0616 59.7469 65.7853 59.7469C65.509 59.7469 65.2441 59.8566 65.0487 60.052C64.8533 60.2473 64.7436 60.5123 64.7436 60.7886Z" fill="#EE5B55"/>
<path d="M19.4855 65.7795C19.4855 66.0558 19.5952 66.3208 19.7906 66.5161C19.9859 66.7115 20.2509 66.8212 20.5272 66.8212C20.8035 66.8212 21.0684 66.7115 21.2638 66.5161C21.4592 66.3208 21.5689 66.0558 21.5689 65.7795C21.5689 65.5032 21.4592 65.2383 21.2638 65.0429C21.0684 64.8476 20.8035 64.7378 20.5272 64.7378C20.2509 64.7378 19.9859 64.8476 19.7906 65.0429C19.5952 65.2383 19.4855 65.5032 19.4855 65.7795Z" fill="#EE5B55"/>
</g>
<defs>
<clipPath id="clip0_3_54">
<rect width="80" height="80" fill="white"/>
</clipPath>
</defs>
</svg>
