<svg width="50" height="50" viewBox="0 0 50 50" fill="none" xmlns="http://www.w3.org/2000/svg">
<rect width="50" height="50" rx="25" fill="#F64740"/>
<path fill-rule="evenodd" clip-rule="evenodd" d="M15.1667 17C14.5223 17 14 17.5117 14 18.1429C14 18.774 14.5223 19.2857 15.1667 19.2857H33.8333C34.4777 19.2857 35 18.774 35 18.1429C35 17.5117 34.4777 17 33.8333 17H15.1667ZM14 25C14 24.3688 14.5223 23.8571 15.1667 23.8571H33.8333C34.4777 23.8571 35 24.3688 35 25C35 25.6312 34.4777 26.1429 33.8333 26.1429H15.1667C14.5223 26.1429 14 25.6312 14 25ZM14 31.8571C14 31.2259 14.5223 30.7143 15.1667 30.7143H33.8333C34.4777 30.7143 35 31.2259 35 31.8571C35 32.4883 34.4777 33 33.8333 33H15.1667C14.5223 33 14 32.4883 14 31.8571Z" fill="white"/>
</svg>
