<svg width="39" height="40" viewBox="0 0 39 40" fill="none" xmlns="http://www.w3.org/2000/svg">
<ellipse cx="19.929" cy="19.5" rx="19" ry="19.5" fill="#E6E6E6"/>
<path d="M19.929 20.1719C18.504 20.1734 17.1106 19.7523 15.925 18.9617C14.7394 18.1712 13.815 17.0467 13.2686 15.7307C12.7222 14.4146 12.5784 12.9661 12.8555 11.5683C13.1325 10.1705 13.8179 8.8863 14.825 7.87814C15.8321 6.86998 17.1155 6.18317 18.513 5.90461C19.9105 5.62604 21.3592 5.76823 22.6759 6.31318C23.9925 6.85814 25.1179 7.78138 25.9098 8.9661C26.7016 10.1508 27.1243 11.5438 27.1243 12.9687C27.1222 14.8771 26.3637 16.7069 25.015 18.0571C23.6663 19.4073 21.8374 20.1677 19.929 20.1719ZM19.929 8.11719C18.9672 8.11564 18.0266 8.39952 17.2263 8.93288C16.426 9.46624 15.8019 10.2251 15.4332 11.1133C15.0644 12.0016 14.9675 12.9793 15.1548 13.9227C15.342 14.866 15.805 15.7326 16.4851 16.4127C17.1651 17.0927 18.0317 17.5557 18.975 17.7429C19.9184 17.9302 20.8961 17.8333 21.7844 17.4645C22.6726 17.0958 23.4315 16.4717 23.9648 15.6714C24.4982 14.8711 24.7821 13.9305 24.7805 12.9687C24.7805 11.682 24.2694 10.448 23.3595 9.53818C22.4497 8.62833 21.2157 8.11719 19.929 8.11719Z" fill="#D4D4D4"/>
<path d="M19.929 38.75C15.6165 38.7459 11.4299 37.2963 8.03833 34.6328C7.91164 34.5324 7.80679 34.4071 7.73022 34.2647C7.65365 34.1223 7.60696 33.9658 7.59302 33.8047C7.59302 33.6797 7.59302 33.5625 7.59302 33.4375C7.59302 31.8165 7.9123 30.2114 8.53263 28.7138C9.15296 27.2161 10.0622 25.8554 11.2084 24.7091C12.3546 23.5629 13.7154 22.6537 15.213 22.0334C16.7106 21.413 18.3158 21.0938 19.9368 21.0938C21.5578 21.0938 23.1629 21.413 24.6605 22.0334C26.1581 22.6537 27.5189 23.5629 28.6651 24.7091C29.8113 25.8554 30.7206 27.2161 31.3409 28.7138C31.9612 30.2114 32.2805 31.8165 32.2805 33.4375C32.2805 33.5625 32.2805 33.6797 32.2805 33.8047C32.2666 33.9658 32.2199 34.1223 32.1433 34.2647C32.0667 34.4071 31.9619 34.5324 31.8352 34.6328C28.4394 37.2996 24.2467 38.7494 19.929 38.75ZM9.93677 33.1328C12.8345 35.259 16.3349 36.4055 19.929 36.4055C23.523 36.4055 27.0234 35.259 29.9211 33.1328C29.819 30.5511 28.7216 28.1091 26.8589 26.3186C24.9962 24.5281 22.5127 23.528 19.929 23.528C17.3452 23.528 14.8618 24.5281 12.999 26.3186C11.1363 28.1091 10.0389 30.5511 9.93677 33.1328Z" fill="#D4D4D4"/>
<path d="M8.04345 34.0077C8.21061 34.0449 8.33325 34.399 8.50257 34.4914C8.59855 34.5437 8.7637 34.697 8.8458 34.77C8.9681 34.8787 9.12556 34.9077 9.26703 34.9706C9.48041 35.0654 9.73973 35.1852 9.93788 35.3004C10.2839 35.5016 10.4484 35.8367 10.7803 36.0537C10.9644 36.1741 11.1705 36.2282 11.3531 36.3546C11.5323 36.4787 11.696 36.5976 11.8546 36.7335C12.2055 37.0343 12.7759 37.1044 13.1963 37.2573C13.6776 37.4323 14.2026 37.595 14.6628 37.8189C14.9704 37.9685 15.3072 38.074 15.6256 38.1978C15.846 38.2835 16.111 38.2664 16.3388 38.3315C16.5349 38.3875 16.7585 38.3402 16.9518 38.4006C17.2233 38.4855 17.5292 38.5009 17.812 38.5009C18.5833 38.5009 19.3648 38.5811 20.1389 38.5811C20.8662 38.5811 21.6416 38.7196 22.3654 38.6123C23.6912 38.4159 24.9995 38.2241 26.2345 37.6807C26.7731 37.4437 27.3255 37.2278 27.8592 36.9943C28.285 36.808 28.7304 36.6218 29.1051 36.3435C29.2084 36.2667 29.3534 36.229 29.4417 36.134C29.5248 36.0444 29.6108 35.9464 29.7069 35.871C29.8785 35.7361 30.0731 35.6164 30.2596 35.4921C30.3701 35.4184 30.4835 35.3557 30.5872 35.2714C30.7153 35.1674 30.746 35.0237 30.9082 34.9527C31.0768 34.8789 31.2781 34.806 31.4319 34.7098C31.5596 34.63 32.0094 34.3572 31.8933 34.1482C31.7519 33.8937 31.793 33.6821 31.793 33.426C31.793 33.2658 31.7631 33.2054 31.5835 33.2054C31.3926 33.2054 31.0714 33.1442 30.8926 33.2255C30.6947 33.3154 30.165 32.9466 30.1883 33.3659C30.2057 33.6802 30.5978 33.8915 30.8079 34.0635C30.8719 34.1158 30.9588 34.0884 30.8212 34.1459C30.6306 34.2257 30.4662 34.3232 30.2596 34.3599C29.9614 34.4129 29.9783 34.2628 29.8852 34.0501C29.8518 33.9739 29.8181 33.9095 29.7269 33.9297C29.5937 33.9593 29.6633 33.9454 29.6868 33.767C29.7378 33.3793 29.754 33.6619 29.5553 33.8072C29.3592 33.9505 29.0949 34.0489 28.9246 34.2061C28.7693 34.3494 28.566 34.4489 28.3919 34.5694C28.2198 34.6885 27.9792 34.7562 27.8214 34.8903C27.6368 35.0472 27.3858 35.1161 27.1995 35.2737C27.0163 35.4287 26.8495 35.515 26.6178 35.5812C26.3819 35.6487 26.227 35.7729 25.9715 35.7729C25.7315 35.7729 25.4916 35.7729 25.2516 35.7729C25.044 35.7729 24.8554 35.8823 24.6521 35.8933C24.338 35.9102 24.0187 36.0146 23.7049 36.0515C22.8769 36.1489 22.032 36.0881 21.202 36.183C20.6447 36.2467 20.0853 36.2543 19.5237 36.2543C19.0196 36.2543 18.5128 36.2725 18.0104 36.2231C17.474 36.1704 16.9637 35.8982 16.4592 35.7239C16.0278 35.5748 15.6154 35.4296 15.1665 35.3338C14.765 35.2482 14.3119 35.3228 13.9318 35.1645C13.5354 34.9993 13.1465 34.8271 12.7572 34.6474C12.3084 34.4402 11.868 34.1647 11.4133 33.9699C10.9638 33.7772 10.7823 33.2529 10.3703 33.036C10.0929 32.89 9.7295 32.8042 9.41636 32.8042C9.17937 32.8042 8.94238 32.8042 8.70539 32.8042C8.56168 32.8042 8.2018 32.7336 8.09248 32.8131C8.06515 32.833 7.97162 32.841 7.96544 32.8689C7.94453 32.963 7.9231 33.0476 7.9231 33.1452C7.9231 33.3573 7.95399 33.4862 8.20392 33.4862C8.61318 33.4862 9.11253 33.2384 9.43196 33.6289C9.51077 33.7252 9.58658 33.805 9.68826 33.8785C9.81106 33.9672 9.80255 34.031 9.88885 34.1281C9.93631 34.1815 9.93472 34.2923 9.98914 34.1593C10.0598 33.9866 10.0931 33.8033 10.1697 33.6311C10.1737 33.6221 10.2107 33.5883 10.2209 33.6088C10.2239 33.6147 9.90327 33.7218 9.88885 33.7269C9.77377 33.7675 9.49452 33.8788 9.41636 33.9765C9.28487 34.1409 10.3657 34.5261 10.4817 34.5605C10.5188 34.5715 10.6127 34.624 10.6043 34.5649C10.5725 34.3423 10.0318 34.2128 9.84873 34.2128C9.33842 34.2128 9.54469 34.7732 9.96017 34.6808C10.4192 34.5788 9.53225 33.9963 9.53225 34.3577C9.53225 34.8364 10.1272 35.0793 10.504 35.2068C10.6738 35.2643 11.0096 35.4132 11.1927 35.3116C11.289 35.258 11.4577 35.2915 11.5649 35.2915C11.7551 35.2915 11.6901 35.2038 11.5337 35.1711C11.2972 35.1217 11.1833 35.3892 11.1392 35.5879C11.0853 35.8303 11.4456 35.1816 11.5092 34.9416C11.6112 34.5562 11.1323 34.7512 11.2306 34.9616C11.3147 35.1419 11.6769 35.255 11.8546 35.3227C11.9614 35.3634 11.9822 35.155 11.9348 35.1801C11.8047 35.249 11.8546 35.5755 11.8546 35.6882C11.8546 35.9061 11.8905 36.0282 12.1198 36.0716C12.3855 36.1218 12.7524 36.0111 12.969 35.8531C13.0763 35.7749 13.067 35.6927 13.1294 35.6035C13.1912 35.5153 12.9441 35.5428 12.9177 35.5567C12.7169 35.663 12.5885 35.8869 12.6369 36.1095C12.669 36.2572 12.3303 35.9689 12.2781 35.9378C12.1933 35.8875 12.264 35.9514 12.2825 35.9646C12.4075 36.0533 12.5527 36.1068 12.6993 36.1473C12.8813 36.1976 13.6432 36.3363 13.5329 35.9133C13.4783 35.7043 13.266 35.7674 13.2052 35.9334C13.0839 36.2648 13.2509 36.5645 13.5529 36.7001C13.8738 36.844 14.072 36.6262 14.177 36.3346C14.2983 35.9976 14.2422 35.8745 13.8649 35.8955C13.6397 35.908 13.4987 36.2148 13.6064 36.4148C13.8207 36.8129 14.4512 36.4347 14.645 36.2231C14.8867 35.9592 14.7808 35.4913 14.3597 35.7105C14.1144 35.8382 13.953 36.3807 14.1903 36.5797C14.4658 36.8107 15.2005 36.7638 15.5075 36.651C15.7846 36.5493 15.7077 36.3034 15.4295 36.3034C15.2072 36.3034 15.0663 36.7367 15.0907 36.9185C15.1364 37.2587 15.6551 36.9479 15.7772 36.8472C16.8233 35.9841 14.0262 36.1306 14.6272 36.9319C14.9418 37.3513 15.7693 37.0542 16.0714 36.7669C16.1985 36.646 16.4018 36.3562 16.3299 36.1607C16.2773 36.0175 16.0617 36.1452 16.0112 36.212C15.8768 36.3898 15.4727 37.3208 15.7505 37.4801C15.93 37.5832 16.1618 37.4103 16.3076 37.3263C16.6117 37.1514 16.9336 36.9902 17.2125 36.7758C17.6592 36.4326 17.0988 36.6518 16.8849 36.7469C16.4956 36.9199 16.2036 37.1883 15.9867 37.5559C15.6701 38.0925 16.2906 37.7554 16.5327 37.625C16.8099 37.4758 17.5558 37.1379 17.451 36.7001C17.3978 36.4778 17.0797 36.407 16.9362 36.5797C16.692 36.8734 16.8086 37.4412 17.159 37.6005C17.6664 37.8311 18.2948 37.6252 18.4963 37.1012C18.7439 36.4574 18.1256 36.422 17.7073 36.7179C17.4488 36.9008 17.23 37.16 17.1078 37.4534C17.0369 37.6235 16.9265 38.0246 17.1501 38.1443C17.3497 38.2511 17.7152 37.9675 17.8678 37.8791C18.0624 37.7663 18.3347 37.6392 18.4562 37.4356C18.5502 37.2778 18.2733 37.4286 18.2511 37.4534C18.0589 37.6679 17.951 38 18.3336 38.0217C18.7767 38.0469 19.1569 37.7691 19.4769 37.4935C19.6341 37.3582 19.9048 37.1054 19.9048 36.8695C19.9048 36.7555 19.7312 36.8129 19.682 36.836C19.4122 36.963 19.136 37.2116 18.9821 37.4668C18.8946 37.612 18.7469 37.9751 18.9108 38.122C19.0939 38.2862 19.525 38.0581 19.682 37.9615C20.0262 37.7499 20.2337 37.415 20.3461 37.0344C20.37 36.9537 20.4957 36.6333 20.3729 36.5619C20.0486 36.3733 19.8613 37.1429 19.8469 37.3241C19.7886 38.0575 21.1765 37.6855 21.2956 37.1414C21.3264 37.0003 21.2752 36.8983 21.1217 36.9452C20.9214 37.0064 20.8409 37.3592 20.8409 37.5381C20.8409 37.7508 21.1717 37.642 21.2822 37.5916C21.4598 37.5105 21.5898 37.3761 21.7369 37.2528C21.7863 37.2113 21.9596 37.1414 21.8951 37.1414C21.6471 37.1414 21.3203 37.4271 21.2666 37.654C21.1942 37.9598 21.5133 37.9058 21.7235 37.8345C22.1452 37.6914 22.5373 37.4982 22.9716 37.3865C23.0561 37.3648 23.3285 37.3466 23.3995 37.2885C23.7562 36.9967 24.09 36.8613 24.5473 36.758C24.6762 36.7289 24.7992 36.7107 24.8928 36.816C24.9815 36.9158 24.3563 37.0528 24.2955 37.0745C23.7266 37.2777 23.1725 37.2961 22.5793 37.1859C22.4143 37.1553 22.2429 37.1187 22.0846 37.0611C22.0036 37.0317 22.2569 37.0567 22.3431 37.0567C22.5667 37.0567 23.0546 37.1543 23.2413 37.0143C23.3604 36.925 23.1473 36.9875 23.1187 37.0032C22.91 37.118 22.7291 37.2718 22.5102 37.3709C22.4114 37.4157 22.0867 37.6145 22.0355 37.4668C21.9618 37.2536 22.2925 37.1112 22.4412 37.0076C22.7981 36.759 23.2028 36.5277 23.6335 36.4415C23.9195 36.3844 24.2187 36.3767 24.5094 36.3747C24.6255 36.3738 24.7959 36.3441 24.9106 36.3769C24.971 36.3942 24.8961 36.4685 24.8794 36.4817C24.5552 36.7379 24.1439 36.9368 23.7695 37.1035C23.3292 37.2995 22.9048 37.3681 22.4278 37.3776C22.1954 37.3822 22.1086 37.4203 22.0957 37.1436C22.0906 37.0348 22.0871 36.4089 22.3141 36.446C22.4694 36.4713 22.5402 36.6661 22.6663 36.7602C23.1758 37.1407 23.7994 37.3269 24.4292 37.3776C25.1002 37.4317 25.6053 37.1385 26.1453 36.8071C26.2774 36.726 26.3993 36.6243 26.5376 36.5552C26.5803 36.5338 26.8982 36.381 26.8429 36.3568C26.5168 36.2142 26.0279 36.5932 25.7442 36.6956C25.1288 36.9177 24.4772 37.03 23.8586 37.2483C23.5057 37.3729 23.343 37.709 22.9983 37.8278C22.8793 37.8689 22.7346 37.9407 22.6507 38.0351C22.628 38.0606 23.1566 37.8695 23.2346 37.839C23.6988 37.6573 24.1987 37.5797 24.6075 37.2795C24.7804 37.1526 24.9744 37.0711 25.1513 36.9519C25.3127 36.8432 25.4507 36.7174 25.6283 36.6332C26.1934 36.3652 26.6948 35.9693 27.2619 35.6949C27.8191 35.4253 28.4256 35.3187 29.0048 35.1132C29.2108 35.0401 29.422 35.0166 29.6356 34.9795C29.8816 34.9367 29.8219 35.0107 29.6668 35.1399C29.4805 35.2951 29.3183 35.5074 29.0851 35.5902C28.8371 35.6781 28.6204 35.7166 28.3852 35.8509C28.1334 35.9948 27.8939 36.0726 27.6208 36.1429C27.5346 36.165 27.2542 36.4258 27.3399 36.2543" stroke="#E6E6E6" stroke-linecap="round"/>
</svg>
