<svg width="297" height="405" viewBox="0 0 297 405" fill="none" xmlns="http://www.w3.org/2000/svg">
<rect width="297" height="405" rx="1" fill="#EFEFEF"/>
<path d="M114.781 214.625C114.093 214.625 113.434 214.352 112.947 213.865C112.461 213.379 112.188 212.719 112.188 212.031V154.969C112.188 154.281 112.461 153.621 112.947 153.135C113.434 152.648 114.093 152.375 114.781 152.375H182.219C182.907 152.375 183.566 152.648 184.053 153.135C184.539 153.621 184.812 154.281 184.812 154.969V212.031C184.812 212.719 184.539 213.379 184.053 213.865C183.566 214.352 182.907 214.625 182.219 214.625H114.781ZM140.356 196.106L134.769 190.519C134.282 190.032 133.623 189.759 132.935 189.759C132.247 189.759 131.588 190.032 131.101 190.519L117.375 204.255H180.491L160.867 180.704C160.624 180.411 160.319 180.176 159.974 180.014C159.629 179.852 159.253 179.768 158.872 179.768C158.492 179.768 158.116 179.852 157.771 180.014C157.426 180.176 157.121 180.411 156.878 180.704L144.184 195.934C143.953 196.211 143.667 196.437 143.344 196.597C143.021 196.758 142.668 196.849 142.308 196.865C141.947 196.881 141.588 196.822 141.252 196.691C140.915 196.56 140.61 196.361 140.356 196.106ZM127.75 173.125C127.75 174.147 127.952 175.159 128.344 176.104C128.735 177.048 129.309 177.906 130.032 178.628C130.755 179.351 131.613 179.924 132.557 180.315C133.502 180.706 134.514 180.907 135.536 180.906C136.559 180.906 137.571 180.704 138.515 180.313C139.459 179.921 140.317 179.348 141.04 178.625C141.762 177.902 142.335 177.043 142.726 176.099C143.117 175.154 143.318 174.142 143.318 173.12C143.317 171.055 142.496 169.076 141.036 167.617C139.576 166.157 137.596 165.338 135.531 165.339C133.467 165.339 131.487 166.16 130.028 167.62C128.569 169.08 127.749 171.061 127.75 173.125Z" fill="#E2E2E2"/>
<path d="M56.98 259C56.848 259 56.746 258.964 56.674 258.892C56.602 258.808 56.566 258.706 56.566 258.586V246.814C56.566 246.694 56.602 246.598 56.674 246.526C56.746 246.442 56.848 246.4 56.98 246.4H57.934C58.054 246.4 58.15 246.442 58.222 246.526C58.306 246.598 58.348 246.694 58.348 246.814V258.586C58.348 258.706 58.306 258.808 58.222 258.892C58.15 258.964 58.054 259 57.934 259H56.98ZM61.6679 259C61.5479 259 61.4459 258.964 61.3619 258.892C61.2899 258.808 61.2539 258.706 61.2539 258.586V250.054C61.2539 249.934 61.2899 249.838 61.3619 249.766C61.4459 249.682 61.5479 249.64 61.6679 249.64H62.4779C62.5979 249.64 62.6939 249.682 62.7659 249.766C62.8499 249.838 62.8919 249.934 62.8919 250.054V250.684C63.1679 250.312 63.5159 250.018 63.9359 249.802C64.3559 249.574 64.8599 249.46 65.4479 249.46C66.8039 249.448 67.7639 250 68.3279 251.116C68.6039 250.612 69.0059 250.21 69.5339 249.91C70.0619 249.61 70.6619 249.46 71.3339 249.46C71.9579 249.46 72.5219 249.604 73.0259 249.892C73.5419 250.18 73.9439 250.618 74.2319 251.206C74.5319 251.782 74.6819 252.508 74.6819 253.384V258.586C74.6819 258.706 74.6399 258.808 74.5559 258.892C74.4839 258.964 74.3879 259 74.2679 259H73.4219C73.3019 259 73.1999 258.964 73.1159 258.892C73.0439 258.808 73.0079 258.706 73.0079 258.586V253.546C73.0079 252.874 72.9119 252.346 72.7199 251.962C72.5279 251.578 72.2699 251.308 71.9459 251.152C71.6219 250.996 71.2679 250.918 70.8839 250.918C70.5719 250.918 70.2539 250.996 69.9299 251.152C69.6059 251.308 69.3359 251.578 69.1199 251.962C68.9159 252.346 68.8139 252.874 68.8139 253.546V258.586C68.8139 258.706 68.7719 258.808 68.6879 258.892C68.6159 258.964 68.5199 259 68.3999 259H67.5539C67.4339 259 67.3319 258.964 67.2479 258.892C67.1759 258.808 67.1399 258.706 67.1399 258.586V253.546C67.1399 252.874 67.0379 252.346 66.8339 251.962C66.6299 251.578 66.3659 251.308 66.0419 251.152C65.7179 250.996 65.3759 250.918 65.0159 250.918C64.7039 250.918 64.3859 250.996 64.0619 251.152C63.7379 251.308 63.4679 251.578 63.2519 251.962C63.0479 252.346 62.9459 252.868 62.9459 253.528V258.586C62.9459 258.706 62.9039 258.808 62.8199 258.892C62.7479 258.964 62.6519 259 62.5319 259H61.6679ZM79.86 259.18C79.26 259.18 78.714 259.06 78.222 258.82C77.73 258.58 77.334 258.256 77.034 257.848C76.734 257.44 76.584 256.978 76.584 256.462C76.584 255.634 76.92 254.974 77.592 254.482C78.264 253.99 79.14 253.666 80.22 253.51L82.902 253.132V252.61C82.902 252.034 82.734 251.584 82.398 251.26C82.074 250.936 81.54 250.774 80.796 250.774C80.256 250.774 79.818 250.882 79.482 251.098C79.158 251.314 78.93 251.59 78.798 251.926C78.726 252.106 78.6 252.196 78.42 252.196H77.61C77.478 252.196 77.376 252.16 77.304 252.088C77.244 252.004 77.214 251.908 77.214 251.8C77.214 251.62 77.28 251.398 77.412 251.134C77.556 250.87 77.772 250.612 78.06 250.36C78.348 250.108 78.714 249.898 79.158 249.73C79.614 249.55 80.166 249.46 80.814 249.46C81.534 249.46 82.14 249.556 82.632 249.748C83.124 249.928 83.508 250.174 83.784 250.486C84.072 250.798 84.276 251.152 84.396 251.548C84.528 251.944 84.594 252.346 84.594 252.754V258.586C84.594 258.706 84.552 258.808 84.468 258.892C84.396 258.964 84.3 259 84.18 259H83.352C83.22 259 83.118 258.964 83.046 258.892C82.974 258.808 82.938 258.706 82.938 258.586V257.812C82.782 258.028 82.572 258.244 82.308 258.46C82.044 258.664 81.714 258.838 81.318 258.982C80.922 259.114 80.436 259.18 79.86 259.18ZM80.238 257.83C80.73 257.83 81.18 257.728 81.588 257.524C81.996 257.308 82.314 256.978 82.542 256.534C82.782 256.09 82.902 255.532 82.902 254.86V254.356L80.814 254.662C79.962 254.782 79.32 254.986 78.888 255.274C78.456 255.55 78.24 255.904 78.24 256.336C78.24 256.672 78.336 256.954 78.528 257.182C78.732 257.398 78.984 257.56 79.284 257.668C79.596 257.776 79.914 257.83 80.238 257.83ZM91.0156 262.96C90.1996 262.96 89.5276 262.852 88.9996 262.636C88.4836 262.42 88.0756 262.156 87.7756 261.844C87.4876 261.544 87.2776 261.238 87.1456 260.926C87.0256 260.626 86.9596 260.386 86.9476 260.206C86.9356 260.086 86.9716 259.984 87.0556 259.9C87.1516 259.816 87.2536 259.774 87.3616 259.774H88.2256C88.3336 259.774 88.4236 259.798 88.4956 259.846C88.5676 259.894 88.6276 259.996 88.6756 260.152C88.7476 260.332 88.8556 260.53 88.9996 260.746C89.1436 260.974 89.3656 261.166 89.6656 261.322C89.9656 261.49 90.3856 261.574 90.9256 261.574C91.4896 261.574 91.9636 261.496 92.3476 261.34C92.7316 261.196 93.0196 260.932 93.2116 260.548C93.4156 260.176 93.5176 259.66 93.5176 259V257.776C93.2296 258.148 92.8516 258.46 92.3836 258.712C91.9156 258.952 91.3276 259.072 90.6196 259.072C89.9476 259.072 89.3716 258.958 88.8916 258.73C88.4116 258.49 88.0156 258.172 87.7036 257.776C87.4036 257.368 87.1756 256.906 87.0196 256.39C86.8756 255.874 86.7916 255.334 86.7676 254.77C86.7556 254.434 86.7556 254.104 86.7676 253.78C86.7916 253.216 86.8756 252.676 87.0196 252.16C87.1756 251.644 87.4036 251.182 87.7036 250.774C88.0156 250.366 88.4116 250.048 88.8916 249.82C89.3716 249.58 89.9476 249.46 90.6196 249.46C91.3396 249.46 91.9336 249.598 92.4016 249.874C92.8816 250.138 93.2716 250.462 93.5716 250.846V250.072C93.5716 249.952 93.6076 249.85 93.6796 249.766C93.7636 249.682 93.8656 249.64 93.9856 249.64H94.8136C94.9336 249.64 95.0356 249.682 95.1196 249.766C95.2036 249.85 95.2456 249.952 95.2456 250.072V258.802C95.2456 259.606 95.1076 260.32 94.8316 260.944C94.5676 261.568 94.1236 262.06 93.4996 262.42C92.8876 262.78 92.0596 262.96 91.0156 262.96ZM90.9796 257.632C91.5796 257.632 92.0596 257.494 92.4196 257.218C92.7916 256.942 93.0616 256.594 93.2296 256.174C93.4096 255.754 93.5056 255.328 93.5176 254.896C93.5296 254.728 93.5356 254.524 93.5356 254.284C93.5356 254.032 93.5296 253.822 93.5176 253.654C93.5056 253.222 93.4096 252.796 93.2296 252.376C93.0616 251.956 92.7916 251.608 92.4196 251.332C92.0596 251.056 91.5796 250.918 90.9796 250.918C90.3796 250.918 89.8996 251.056 89.5396 251.332C89.1796 251.596 88.9216 251.95 88.7656 252.394C88.6096 252.826 88.5196 253.294 88.4956 253.798C88.4836 254.11 88.4836 254.428 88.4956 254.752C88.5196 255.256 88.6096 255.73 88.7656 256.174C88.9216 256.606 89.1796 256.96 89.5396 257.236C89.8996 257.5 90.3796 257.632 90.9796 257.632ZM101.648 259.18C100.412 259.18 99.4278 258.802 98.6958 258.046C97.9638 257.278 97.5618 256.234 97.4898 254.914C97.4778 254.758 97.4718 254.56 97.4718 254.32C97.4718 254.068 97.4778 253.864 97.4898 253.708C97.5378 252.856 97.7358 252.112 98.0838 251.476C98.4318 250.828 98.9058 250.33 99.5058 249.982C100.118 249.634 100.832 249.46 101.648 249.46C102.56 249.46 103.322 249.652 103.934 250.036C104.558 250.42 105.032 250.966 105.356 251.674C105.68 252.382 105.842 253.21 105.842 254.158V254.464C105.842 254.596 105.8 254.698 105.716 254.77C105.644 254.842 105.548 254.878 105.428 254.878H99.1998C99.1998 254.89 99.1998 254.914 99.1998 254.95C99.1998 254.986 99.1998 255.016 99.1998 255.04C99.2238 255.532 99.3318 255.994 99.5238 256.426C99.7158 256.846 99.9918 257.188 100.352 257.452C100.712 257.716 101.144 257.848 101.648 257.848C102.08 257.848 102.44 257.782 102.728 257.65C103.016 257.518 103.25 257.374 103.43 257.218C103.61 257.05 103.73 256.924 103.79 256.84C103.898 256.684 103.982 256.594 104.042 256.57C104.102 256.534 104.198 256.516 104.33 256.516H105.194C105.314 256.516 105.41 256.552 105.482 256.624C105.566 256.684 105.602 256.774 105.59 256.894C105.578 257.074 105.482 257.296 105.302 257.56C105.122 257.812 104.864 258.064 104.528 258.316C104.192 258.568 103.784 258.778 103.304 258.946C102.824 259.102 102.272 259.18 101.648 259.18ZM99.1998 253.636H104.132V253.582C104.132 253.042 104.03 252.562 103.826 252.142C103.634 251.722 103.352 251.392 102.98 251.152C102.608 250.9 102.164 250.774 101.648 250.774C101.132 250.774 100.688 250.9 100.316 251.152C99.9558 251.392 99.6798 251.722 99.4878 252.142C99.2958 252.562 99.1998 253.042 99.1998 253.582V253.636ZM116.186 259.18C115.334 259.18 114.596 259.018 113.972 258.694C113.36 258.358 112.886 257.884 112.55 257.272C112.214 256.648 112.034 255.904 112.01 255.04C111.998 254.86 111.992 254.62 111.992 254.32C111.992 254.02 111.998 253.78 112.01 253.6C112.034 252.736 112.214 251.998 112.55 251.386C112.886 250.762 113.36 250.288 113.972 249.964C114.596 249.628 115.334 249.46 116.186 249.46C116.882 249.46 117.476 249.556 117.968 249.748C118.472 249.94 118.886 250.186 119.21 250.486C119.534 250.786 119.774 251.11 119.93 251.458C120.098 251.806 120.188 252.136 120.2 252.448C120.212 252.568 120.176 252.664 120.092 252.736C120.008 252.808 119.906 252.844 119.786 252.844H118.922C118.802 252.844 118.712 252.82 118.652 252.772C118.592 252.712 118.532 252.616 118.472 252.484C118.256 251.896 117.962 251.482 117.59 251.242C117.218 251.002 116.756 250.882 116.204 250.882C115.484 250.882 114.896 251.104 114.44 251.548C113.996 251.992 113.756 252.706 113.72 253.69C113.708 254.122 113.708 254.542 113.72 254.95C113.756 255.946 113.996 256.666 114.44 257.11C114.896 257.542 115.484 257.758 116.204 257.758C116.756 257.758 117.218 257.638 117.59 257.398C117.962 257.158 118.256 256.744 118.472 256.156C118.532 256.024 118.592 255.934 118.652 255.886C118.712 255.826 118.802 255.796 118.922 255.796H119.786C119.906 255.796 120.008 255.832 120.092 255.904C120.176 255.976 120.212 256.072 120.2 256.192C120.188 256.444 120.134 256.702 120.038 256.966C119.942 257.23 119.786 257.5 119.57 257.776C119.366 258.04 119.108 258.28 118.796 258.496C118.484 258.7 118.106 258.868 117.662 259C117.23 259.12 116.738 259.18 116.186 259.18ZM124.948 259.18C124.348 259.18 123.802 259.06 123.31 258.82C122.818 258.58 122.422 258.256 122.122 257.848C121.822 257.44 121.672 256.978 121.672 256.462C121.672 255.634 122.008 254.974 122.68 254.482C123.352 253.99 124.228 253.666 125.308 253.51L127.99 253.132V252.61C127.99 252.034 127.822 251.584 127.486 251.26C127.162 250.936 126.628 250.774 125.884 250.774C125.344 250.774 124.906 250.882 124.57 251.098C124.246 251.314 124.018 251.59 123.886 251.926C123.814 252.106 123.688 252.196 123.508 252.196H122.698C122.566 252.196 122.464 252.16 122.392 252.088C122.332 252.004 122.302 251.908 122.302 251.8C122.302 251.62 122.368 251.398 122.5 251.134C122.644 250.87 122.86 250.612 123.148 250.36C123.436 250.108 123.802 249.898 124.246 249.73C124.702 249.55 125.254 249.46 125.902 249.46C126.622 249.46 127.228 249.556 127.72 249.748C128.212 249.928 128.596 250.174 128.872 250.486C129.16 250.798 129.364 251.152 129.484 251.548C129.616 251.944 129.682 252.346 129.682 252.754V258.586C129.682 258.706 129.64 258.808 129.556 258.892C129.484 258.964 129.388 259 129.268 259H128.44C128.308 259 128.206 258.964 128.134 258.892C128.062 258.808 128.026 258.706 128.026 258.586V257.812C127.87 258.028 127.66 258.244 127.396 258.46C127.132 258.664 126.802 258.838 126.406 258.982C126.01 259.114 125.524 259.18 124.948 259.18ZM125.326 257.83C125.818 257.83 126.268 257.728 126.676 257.524C127.084 257.308 127.402 256.978 127.63 256.534C127.87 256.09 127.99 255.532 127.99 254.86V254.356L125.902 254.662C125.05 254.782 124.408 254.986 123.976 255.274C123.544 255.55 123.328 255.904 123.328 256.336C123.328 256.672 123.424 256.954 123.616 257.182C123.82 257.398 124.072 257.56 124.372 257.668C124.684 257.776 125.002 257.83 125.326 257.83ZM132.684 259C132.564 259 132.462 258.964 132.378 258.892C132.306 258.808 132.27 258.706 132.27 258.586V250.054C132.27 249.934 132.306 249.838 132.378 249.766C132.462 249.682 132.564 249.64 132.684 249.64H133.53C133.65 249.64 133.746 249.682 133.818 249.766C133.902 249.838 133.944 249.934 133.944 250.054V250.846C134.256 250.438 134.646 250.108 135.114 249.856C135.594 249.592 136.206 249.46 136.95 249.46C137.73 249.46 138.39 249.634 138.93 249.982C139.482 250.318 139.896 250.792 140.172 251.404C140.448 252.004 140.586 252.706 140.586 253.51V258.586C140.586 258.706 140.55 258.808 140.478 258.892C140.406 258.964 140.31 259 140.189 259H139.29C139.17 259 139.068 258.964 138.984 258.892C138.912 258.808 138.876 258.706 138.876 258.586V253.6C138.876 252.76 138.672 252.106 138.264 251.638C137.856 251.158 137.256 250.918 136.464 250.918C135.72 250.918 135.12 251.158 134.664 251.638C134.22 252.106 133.998 252.76 133.998 253.6V258.586C133.998 258.706 133.956 258.808 133.872 258.892C133.8 258.964 133.704 259 133.583 259H132.684ZM142.587 249.694C142.491 249.694 142.413 249.658 142.353 249.586C142.305 249.514 142.287 249.424 142.299 249.316L142.713 246.742C142.737 246.598 142.785 246.478 142.857 246.382C142.941 246.274 143.061 246.22 143.217 246.22H144.423C144.507 246.22 144.573 246.256 144.621 246.328C144.681 246.388 144.711 246.454 144.711 246.526C144.711 246.622 144.687 246.718 144.639 246.814L143.703 249.28C143.655 249.4 143.589 249.502 143.505 249.586C143.433 249.658 143.319 249.694 143.163 249.694H142.587ZM150.355 259C149.683 259 149.137 258.874 148.717 258.622C148.297 258.358 147.991 257.992 147.799 257.524C147.607 257.044 147.511 256.48 147.511 255.832V251.08H146.107C145.987 251.08 145.885 251.044 145.801 250.972C145.729 250.888 145.693 250.786 145.693 250.666V250.054C145.693 249.934 145.729 249.838 145.801 249.766C145.885 249.682 145.987 249.64 146.107 249.64H147.511V246.634C147.511 246.514 147.547 246.418 147.619 246.346C147.703 246.262 147.805 246.22 147.925 246.22H148.771C148.891 246.22 148.987 246.262 149.059 246.346C149.143 246.418 149.185 246.514 149.185 246.634V249.64H151.417C151.537 249.64 151.633 249.682 151.705 249.766C151.789 249.838 151.831 249.934 151.831 250.054V250.666C151.831 250.786 151.789 250.888 151.705 250.972C151.633 251.044 151.537 251.08 151.417 251.08H149.185V255.706C149.185 256.27 149.281 256.714 149.473 257.038C149.665 257.362 150.007 257.524 150.499 257.524H151.597C151.717 257.524 151.813 257.566 151.885 257.65C151.969 257.722 152.011 257.818 152.011 257.938V258.586C152.011 258.706 151.969 258.808 151.885 258.892C151.813 258.964 151.717 259 151.597 259H150.355ZM162.771 259.18C162.051 259.18 161.451 259.054 160.971 258.802C160.491 258.538 160.107 258.214 159.819 257.83V258.586C159.819 258.706 159.777 258.808 159.693 258.892C159.621 258.964 159.525 259 159.405 259H158.577C158.457 259 158.355 258.964 158.271 258.892C158.199 258.808 158.163 258.706 158.163 258.586V246.634C158.163 246.514 158.199 246.418 158.271 246.346C158.355 246.262 158.457 246.22 158.577 246.22H159.441C159.573 246.22 159.675 246.262 159.747 246.346C159.819 246.418 159.855 246.514 159.855 246.634V250.774C160.155 250.402 160.539 250.09 161.007 249.838C161.487 249.586 162.075 249.46 162.771 249.46C163.443 249.46 164.013 249.58 164.481 249.82C164.961 250.048 165.351 250.366 165.651 250.774C165.963 251.182 166.197 251.644 166.353 252.16C166.509 252.676 166.593 253.216 166.605 253.78C166.617 253.972 166.623 254.152 166.623 254.32C166.623 254.488 166.617 254.668 166.605 254.86C166.593 255.436 166.509 255.982 166.353 256.498C166.197 257.014 165.963 257.476 165.651 257.884C165.351 258.28 164.961 258.598 164.481 258.838C164.013 259.066 163.443 259.18 162.771 259.18ZM162.393 257.722C163.017 257.722 163.503 257.59 163.851 257.326C164.211 257.05 164.469 256.696 164.625 256.264C164.781 255.82 164.871 255.346 164.895 254.842C164.907 254.494 164.907 254.146 164.895 253.798C164.871 253.294 164.781 252.826 164.625 252.394C164.469 251.95 164.211 251.596 163.851 251.332C163.503 251.056 163.017 250.918 162.393 250.918C161.829 250.918 161.361 251.05 160.989 251.314C160.617 251.578 160.335 251.914 160.143 252.322C159.963 252.73 159.867 253.144 159.855 253.564C159.843 253.756 159.837 253.99 159.837 254.266C159.837 254.53 159.843 254.758 159.855 254.95C159.879 255.394 159.975 255.832 160.143 256.264C160.323 256.684 160.593 257.032 160.953 257.308C161.325 257.584 161.805 257.722 162.393 257.722ZM172.576 259.18C171.34 259.18 170.356 258.802 169.624 258.046C168.892 257.278 168.49 256.234 168.418 254.914C168.406 254.758 168.4 254.56 168.4 254.32C168.4 254.068 168.406 253.864 168.418 253.708C168.466 252.856 168.664 252.112 169.012 251.476C169.36 250.828 169.834 250.33 170.434 249.982C171.046 249.634 171.76 249.46 172.576 249.46C173.488 249.46 174.25 249.652 174.862 250.036C175.486 250.42 175.96 250.966 176.284 251.674C176.608 252.382 176.77 253.21 176.77 254.158V254.464C176.77 254.596 176.728 254.698 176.644 254.77C176.572 254.842 176.476 254.878 176.356 254.878H170.128C170.128 254.89 170.128 254.914 170.128 254.95C170.128 254.986 170.128 255.016 170.128 255.04C170.152 255.532 170.26 255.994 170.452 256.426C170.644 256.846 170.92 257.188 171.28 257.452C171.64 257.716 172.072 257.848 172.576 257.848C173.008 257.848 173.368 257.782 173.656 257.65C173.944 257.518 174.178 257.374 174.358 257.218C174.538 257.05 174.658 256.924 174.718 256.84C174.826 256.684 174.91 256.594 174.97 256.57C175.03 256.534 175.126 256.516 175.258 256.516H176.122C176.242 256.516 176.338 256.552 176.41 256.624C176.494 256.684 176.53 256.774 176.518 256.894C176.506 257.074 176.41 257.296 176.23 257.56C176.05 257.812 175.792 258.064 175.456 258.316C175.12 258.568 174.712 258.778 174.232 258.946C173.752 259.102 173.2 259.18 172.576 259.18ZM170.128 253.636H175.06V253.582C175.06 253.042 174.958 252.562 174.754 252.142C174.562 251.722 174.28 251.392 173.908 251.152C173.536 250.9 173.092 250.774 172.576 250.774C172.06 250.774 171.616 250.9 171.244 251.152C170.884 251.392 170.608 251.722 170.416 252.142C170.224 252.562 170.128 253.042 170.128 253.582V253.636ZM183.766 259C183.646 259 183.544 258.964 183.46 258.892C183.388 258.808 183.352 258.706 183.352 258.586V246.634C183.352 246.514 183.388 246.418 183.46 246.346C183.544 246.262 183.646 246.22 183.766 246.22H184.612C184.744 246.22 184.846 246.262 184.918 246.346C184.99 246.418 185.026 246.514 185.026 246.634V258.586C185.026 258.706 184.99 258.808 184.918 258.892C184.846 258.964 184.744 259 184.612 259H183.766ZM191.545 259.18C190.633 259.18 189.871 259.006 189.259 258.658C188.647 258.31 188.179 257.83 187.855 257.218C187.531 256.594 187.351 255.886 187.315 255.094C187.303 254.89 187.297 254.632 187.297 254.32C187.297 253.996 187.303 253.738 187.315 253.546C187.351 252.742 187.531 252.034 187.855 251.422C188.191 250.81 188.665 250.33 189.277 249.982C189.889 249.634 190.645 249.46 191.545 249.46C192.445 249.46 193.201 249.634 193.813 249.982C194.425 250.33 194.893 250.81 195.217 251.422C195.553 252.034 195.739 252.742 195.775 253.546C195.787 253.738 195.793 253.996 195.793 254.32C195.793 254.632 195.787 254.89 195.775 255.094C195.739 255.886 195.559 256.594 195.235 257.218C194.911 257.83 194.443 258.31 193.831 258.658C193.219 259.006 192.457 259.18 191.545 259.18ZM191.545 257.794C192.289 257.794 192.883 257.56 193.327 257.092C193.771 256.612 194.011 255.916 194.047 255.004C194.059 254.824 194.065 254.596 194.065 254.32C194.065 254.044 194.059 253.816 194.047 253.636C194.011 252.724 193.771 252.034 193.327 251.566C192.883 251.086 192.289 250.846 191.545 250.846C190.801 250.846 190.201 251.086 189.745 251.566C189.301 252.034 189.067 252.724 189.043 253.636C189.031 253.816 189.025 254.044 189.025 254.32C189.025 254.596 189.031 254.824 189.043 255.004C189.067 255.916 189.301 256.612 189.745 257.092C190.201 257.56 190.801 257.794 191.545 257.794ZM200.657 259.18C200.057 259.18 199.511 259.06 199.019 258.82C198.527 258.58 198.131 258.256 197.831 257.848C197.531 257.44 197.381 256.978 197.381 256.462C197.381 255.634 197.717 254.974 198.389 254.482C199.061 253.99 199.937 253.666 201.017 253.51L203.699 253.132V252.61C203.699 252.034 203.531 251.584 203.195 251.26C202.871 250.936 202.337 250.774 201.593 250.774C201.053 250.774 200.615 250.882 200.279 251.098C199.955 251.314 199.727 251.59 199.595 251.926C199.523 252.106 199.397 252.196 199.217 252.196H198.407C198.275 252.196 198.173 252.16 198.101 252.088C198.041 252.004 198.011 251.908 198.011 251.8C198.011 251.62 198.077 251.398 198.209 251.134C198.353 250.87 198.569 250.612 198.857 250.36C199.145 250.108 199.511 249.898 199.955 249.73C200.411 249.55 200.963 249.46 201.611 249.46C202.331 249.46 202.937 249.556 203.429 249.748C203.921 249.928 204.305 250.174 204.581 250.486C204.869 250.798 205.073 251.152 205.193 251.548C205.325 251.944 205.391 252.346 205.391 252.754V258.586C205.391 258.706 205.349 258.808 205.265 258.892C205.193 258.964 205.097 259 204.977 259H204.149C204.017 259 203.915 258.964 203.843 258.892C203.771 258.808 203.735 258.706 203.735 258.586V257.812C203.579 258.028 203.369 258.244 203.105 258.46C202.841 258.664 202.511 258.838 202.115 258.982C201.719 259.114 201.233 259.18 200.657 259.18ZM201.035 257.83C201.527 257.83 201.977 257.728 202.385 257.524C202.793 257.308 203.111 256.978 203.339 256.534C203.579 256.09 203.699 255.532 203.699 254.86V254.356L201.611 254.662C200.759 254.782 200.117 254.986 199.685 255.274C199.253 255.55 199.037 255.904 199.037 256.336C199.037 256.672 199.133 256.954 199.325 257.182C199.529 257.398 199.781 257.56 200.081 257.668C200.393 257.776 200.711 257.83 201.035 257.83ZM211.398 259.18C210.738 259.18 210.168 259.066 209.688 258.838C209.208 258.598 208.812 258.28 208.5 257.884C208.2 257.476 207.972 257.014 207.816 256.498C207.672 255.982 207.588 255.436 207.564 254.86C207.552 254.668 207.546 254.488 207.546 254.32C207.546 254.152 207.552 253.972 207.564 253.78C207.588 253.216 207.672 252.676 207.816 252.16C207.972 251.644 208.2 251.182 208.5 250.774C208.812 250.366 209.208 250.048 209.688 249.82C210.168 249.58 210.738 249.46 211.398 249.46C212.106 249.46 212.694 249.586 213.162 249.838C213.63 250.09 214.014 250.402 214.314 250.774V246.634C214.314 246.514 214.35 246.418 214.422 246.346C214.506 246.262 214.608 246.22 214.728 246.22H215.592C215.712 246.22 215.808 246.262 215.88 246.346C215.964 246.418 216.006 246.514 216.006 246.634V258.586C216.006 258.706 215.964 258.808 215.88 258.892C215.808 258.964 215.712 259 215.592 259H214.782C214.65 259 214.548 258.964 214.476 258.892C214.404 258.808 214.368 258.706 214.368 258.586V257.83C214.068 258.214 213.678 258.538 213.198 258.802C212.718 259.054 212.118 259.18 211.398 259.18ZM211.776 257.722C212.376 257.722 212.856 257.584 213.216 257.308C213.576 257.032 213.846 256.684 214.026 256.264C214.206 255.832 214.302 255.394 214.314 254.95C214.326 254.758 214.332 254.53 214.332 254.266C214.332 253.99 214.326 253.756 214.314 253.564C214.302 253.144 214.2 252.73 214.008 252.322C213.828 251.914 213.552 251.578 213.18 251.314C212.82 251.05 212.352 250.918 211.776 250.918C211.164 250.918 210.678 251.056 210.318 251.332C209.958 251.596 209.7 251.95 209.544 252.394C209.388 252.826 209.298 253.294 209.274 253.798C209.262 254.146 209.262 254.494 209.274 254.842C209.298 255.346 209.388 255.82 209.544 256.264C209.7 256.696 209.958 257.05 210.318 257.326C210.678 257.59 211.164 257.722 211.776 257.722ZM222.41 259.18C221.174 259.18 220.19 258.802 219.458 258.046C218.726 257.278 218.324 256.234 218.252 254.914C218.24 254.758 218.234 254.56 218.234 254.32C218.234 254.068 218.24 253.864 218.252 253.708C218.3 252.856 218.498 252.112 218.846 251.476C219.194 250.828 219.668 250.33 220.268 249.982C220.88 249.634 221.594 249.46 222.41 249.46C223.322 249.46 224.084 249.652 224.696 250.036C225.32 250.42 225.794 250.966 226.118 251.674C226.442 252.382 226.604 253.21 226.604 254.158V254.464C226.604 254.596 226.562 254.698 226.478 254.77C226.406 254.842 226.31 254.878 226.19 254.878H219.962C219.962 254.89 219.962 254.914 219.962 254.95C219.962 254.986 219.962 255.016 219.962 255.04C219.986 255.532 220.094 255.994 220.286 256.426C220.478 256.846 220.754 257.188 221.114 257.452C221.474 257.716 221.906 257.848 222.41 257.848C222.842 257.848 223.202 257.782 223.49 257.65C223.778 257.518 224.012 257.374 224.192 257.218C224.372 257.05 224.492 256.924 224.552 256.84C224.66 256.684 224.744 256.594 224.804 256.57C224.864 256.534 224.96 256.516 225.092 256.516H225.956C226.076 256.516 226.172 256.552 226.244 256.624C226.328 256.684 226.364 256.774 226.352 256.894C226.34 257.074 226.244 257.296 226.064 257.56C225.884 257.812 225.626 258.064 225.29 258.316C224.954 258.568 224.546 258.778 224.066 258.946C223.586 259.102 223.034 259.18 222.41 259.18ZM219.962 253.636H224.894V253.582C224.894 253.042 224.792 252.562 224.588 252.142C224.396 251.722 224.114 251.392 223.742 251.152C223.37 250.9 222.926 250.774 222.41 250.774C221.894 250.774 221.45 250.9 221.078 251.152C220.718 251.392 220.442 251.722 220.25 252.142C220.058 252.562 219.962 253.042 219.962 253.582V253.636ZM232.176 259.18C231.516 259.18 230.946 259.066 230.466 258.838C229.986 258.598 229.59 258.28 229.278 257.884C228.978 257.476 228.75 257.014 228.594 256.498C228.45 255.982 228.366 255.436 228.342 254.86C228.33 254.668 228.324 254.488 228.324 254.32C228.324 254.152 228.33 253.972 228.342 253.78C228.366 253.216 228.45 252.676 228.594 252.16C228.75 251.644 228.978 251.182 229.278 250.774C229.59 250.366 229.986 250.048 230.466 249.82C230.946 249.58 231.516 249.46 232.176 249.46C232.884 249.46 233.472 249.586 233.94 249.838C234.408 250.09 234.792 250.402 235.092 250.774V246.634C235.092 246.514 235.128 246.418 235.2 246.346C235.284 246.262 235.386 246.22 235.506 246.22H236.37C236.49 246.22 236.586 246.262 236.658 246.346C236.742 246.418 236.784 246.514 236.784 246.634V258.586C236.784 258.706 236.742 258.808 236.658 258.892C236.586 258.964 236.49 259 236.37 259H235.56C235.428 259 235.326 258.964 235.254 258.892C235.182 258.808 235.146 258.706 235.146 258.586V257.83C234.846 258.214 234.456 258.538 233.976 258.802C233.496 259.054 232.896 259.18 232.176 259.18ZM232.554 257.722C233.154 257.722 233.634 257.584 233.994 257.308C234.354 257.032 234.624 256.684 234.804 256.264C234.984 255.832 235.08 255.394 235.092 254.95C235.104 254.758 235.11 254.53 235.11 254.266C235.11 253.99 235.104 253.756 235.092 253.564C235.08 253.144 234.978 252.73 234.786 252.322C234.606 251.914 234.33 251.578 233.958 251.314C233.598 251.05 233.13 250.918 232.554 250.918C231.942 250.918 231.456 251.056 231.096 251.332C230.736 251.596 230.478 251.95 230.322 252.394C230.166 252.826 230.076 253.294 230.052 253.798C230.04 254.146 230.04 254.494 230.052 254.842C230.076 255.346 230.166 255.82 230.322 256.264C230.478 256.696 230.736 257.05 231.096 257.326C231.456 257.59 231.942 257.722 232.554 257.722Z" fill="#BFBFBF"/>
</svg>
