<svg width="51" height="51" viewBox="0 0 51 51" fill="none" xmlns="http://www.w3.org/2000/svg">
<path d="M44.625 12.75V38.25C44.625 40.0095 43.197 41.4375 41.4375 41.4375H7.96875C7.96875 43.197 9.39675 44.625 11.1562 44.625H44.625C46.3845 44.625 47.8125 43.197 47.8125 41.4375V15.9375C47.8125 14.178 46.3845 12.75 44.625 12.75ZM43.0312 36.6562V11.1562C43.0312 9.39675 41.6032 7.96875 39.8438 7.96875H6.375C4.6155 7.96875 3.1875 9.39675 3.1875 11.1562V36.6562C3.1875 38.4158 4.6155 39.8438 6.375 39.8438H39.8438C41.6032 39.8438 43.0312 38.4158 43.0312 36.6562ZM6.375 11.1562H39.8438V36.6562H6.375V11.1562ZM24.9055 27.5894L20.1434 22.5197L15.3797 30.6542L11.8065 26.92L7.93528 35.0944H38.3042L31.4558 17.1727L24.9055 27.5894ZM12.75 22.3125C14.5095 22.3125 15.9375 20.8845 15.9375 19.125C15.9375 17.3655 14.5095 15.9375 12.75 15.9375C10.9905 15.9375 9.5625 17.3655 9.5625 19.125C9.5625 20.8845 10.9905 22.3125 12.75 22.3125Z" fill="black"/>
</svg>
