<svg width="23" height="24" viewBox="0 0 23 24" fill="none" xmlns="http://www.w3.org/2000/svg">
<path d="M12.4913 13.9226C12.4929 14.4519 12.0652 14.8823 11.5359 14.8839C11.0067 14.8856 10.5763 14.4578 10.5746 13.9286L12.4913 13.9226Z" fill="white"/>
<path d="M9.31372 6.94349L10.5489 5.70061L10.5746 13.9286L12.4913 13.9226L12.4655 5.6946L13.7084 6.92971C14.0838 7.30279 14.6906 7.3009 15.0637 6.92547C15.4367 6.55005 15.4348 5.94327 15.0594 5.5702L11.4957 2.02871L7.95419 5.59246L9.31372 6.94349Z" fill="white"/>
<path d="M7.95419 5.59246C7.58111 5.96789 7.583 6.57469 7.95843 6.94776C8.33384 7.32084 8.94065 7.31892 9.31372 6.94349L7.95419 5.59246Z" fill="white"/>
<path d="M3.83334 12C3.83334 10.9414 4.69146 10.0833 5.75001 10.0833C6.27927 10.0833 6.70834 9.65428 6.70834 9.125C6.70834 8.59573 6.27927 8.16667 5.75001 8.16667C3.63291 8.16667 1.91667 9.88291 1.91667 12V17.75C1.91667 19.8671 3.63291 21.5833 5.75001 21.5833H16.2917C18.938 21.5833 21.0833 19.438 21.0833 16.7917V12C21.0833 9.88291 19.3671 8.16667 17.25 8.16667C16.7207 8.16667 16.2917 8.59573 16.2917 9.125C16.2917 9.65428 16.7207 10.0833 17.25 10.0833C18.3086 10.0833 19.1667 10.9414 19.1667 12V16.7917C19.1667 18.3795 17.8795 19.6667 16.2917 19.6667H5.75001C4.69146 19.6667 3.83334 18.8086 3.83334 17.75V12Z" fill="white"/>
</svg>
