<svg width="754" height="808" viewBox="0 0 754 808" fill="none" xmlns="http://www.w3.org/2000/svg">
<g clip-path="url(#clip0_56_641)">
<g clip-path="url(#clip1_56_641)">
<path d="M-327 461C-327 616.417 -252.881 765.468 -120.95 875.365C10.9822 985.261 189.92 1047 376.5 1047C563.08 1047 742.018 985.261 873.95 875.365C1005.88 765.468 1080 616.417 1080 461C1080 305.583 1005.88 156.532 873.95 46.6354C742.018 -63.2609 563.08 -125 376.5 -125C189.92 -125 10.9822 -63.2609 -120.95 46.6354C-252.881 156.532 -327 305.583 -327 461Z" fill="#FEEAE9"/>
<path d="M722.723 32.6844C718.057 32.6844 713.649 33.4489 709.423 34.5591C696.037 18.5288 673.83 7.98994 648.611 7.98994C623.392 7.98994 601.185 18.5288 587.8 34.5591C583.573 33.4489 579.165 32.6844 574.499 32.6844C549.94 32.6844 530.03 49.2686 530.03 69.726H767.192C767.192 49.2686 747.283 32.6844 722.723 32.6844Z" fill="#F8756F"/>
<path d="M506.488 201.635C502.729 201.635 499.176 202.251 495.768 203.146C484.979 190.229 467.084 181.734 446.759 181.734C426.435 181.734 408.54 190.227 397.751 203.146C394.346 202.251 390.793 201.635 387.031 201.635C367.239 201.635 351.193 214.999 351.193 231.487H542.317C542.325 214.999 526.28 201.635 506.488 201.635Z" fill="#F64740"/>
<path d="M99.1016 76.8472C99.1016 40.3069 134.664 10.6865 178.528 10.6865C185.148 10.6865 191.48 11.5586 197.627 12.829C218.353 -5.81538 247.738 -17.6704 280.649 -17.6704C343.315 -17.6704 394.115 24.6452 394.115 76.845H99.1016V76.8472Z" fill="#F8756F"/>
<path d="M265.048 110.146C265.048 82.3296 291.635 59.7777 324.433 59.7777C329.382 59.7777 334.115 60.4415 338.712 61.4098C354.208 47.2153 376.179 38.1918 400.785 38.1918C447.636 38.1918 485.62 70.4081 485.62 110.146H265.048Z" fill="#F8756F"/>
<path d="M225.316 193.294C225.316 179.386 238.611 168.11 255.009 168.11C257.485 168.11 259.851 168.442 262.148 168.925C269.895 161.829 280.882 157.315 293.185 157.315C316.612 157.315 335.601 173.423 335.601 193.292H225.316V193.294Z" fill="#F64740"/>
<path d="M1080 461C1080 412.717 1072.85 365.844 1059.63 320.955L1051.62 316.878C792.371 316.878 553.291 461 248.257 461C-0.267773 461 676.153 484.646 1079.23 486.521C1079.66 478.051 1080 469.559 1080 461Z" fill="#F48E8A"/>
<path d="M-324.364 461C-324.364 412.717 -317.211 365.844 -303.99 320.955L-295.988 316.878C-36.7344 316.878 -20.1197 461 284.914 461C533.441 461 79.4832 484.646 -323.589 486.521C-324.026 478.051 -324.364 469.559 -324.364 461Z" fill="#F8756F"/>
<path d="M134.889 479.58C133.657 479.581 132.437 479.379 131.298 478.987C130.159 478.595 129.124 478.019 128.253 477.294C127.381 476.568 126.689 475.707 126.217 474.759C125.745 473.811 125.502 472.794 125.502 471.768V387.613C125.502 383.298 129.701 379.8 134.889 379.8C140.078 379.8 144.277 383.298 144.277 387.613V471.768C144.276 472.794 144.033 473.811 143.561 474.759C143.089 475.707 142.398 476.568 141.526 477.294C140.654 478.019 139.619 478.595 138.481 478.987C137.342 479.379 136.122 479.581 134.889 479.58Z" fill="#CE2620"/>
<path d="M201.444 365.786C201.444 408.333 171.647 429.69 134.889 429.69C98.131 429.69 68.334 408.333 68.334 365.786C68.334 323.24 109.104 157.317 134.889 157.317C160.674 157.317 201.444 323.24 201.444 365.786Z" fill="#F64740"/>
<path d="M134.887 157.317C129.781 157.317 124.081 163.896 118.233 174.663C139.27 201.201 166.484 332.316 166.484 368.735C166.484 404.316 147.489 424.348 122.27 428.747C126.362 429.338 130.564 429.688 134.887 429.688C171.644 429.688 201.444 408.331 201.444 365.784C201.444 323.237 160.671 157.317 134.887 157.317Z" fill="#EC5F59"/>
<path d="M376.5 1047C765.033 1047 1080 784.639 1080 461H-327C-327 784.639 -12.0326 1047 376.5 1047Z" fill="#FC5C56"/>
<path d="M-207.905 542.024C-387.482 563.23 160.635 649.166 160.635 649.166C160.635 649.166 964.747 712.142 988.399 712.142C992.307 712.142 1000.43 713.202 1010.85 714.64C1044.96 655.552 1067.48 590.959 1076.06 522.905C731.913 580.031 349.019 476.261 -207.905 542.024Z" fill="#FE736D"/>
<path d="M376.5 1047C696.348 1047 966.162 869.138 1051.62 625.719C502.336 623.732 181.136 498.419 -318.723 551.045C-266.713 831.933 24.731 1047 376.5 1047Z" fill="#EE5B55"/>
<path d="M-286.26 657.688C-237.9 770.735 -149.044 867.695 -34.2391 936.61L897.038 855.193C948.756 807.807 990.808 753.685 1021.52 694.977C604.39 686.528 18.0699 627.513 -286.26 657.688Z" fill="#E84842"/>
<path d="M376.5 1047C657.101 1047 899.16 910.093 1012.05 712.142C589.188 712.142 175.184 712.421 -186.827 812.019C-58.5181 954.675 146.036 1047 376.5 1047Z" fill="#E23932"/>
<path d="M662.302 510.215C660.507 510.216 658.73 509.922 657.071 509.35C655.412 508.778 653.905 507.94 652.635 506.883C651.365 505.826 650.358 504.572 649.671 503.19C648.983 501.809 648.629 500.329 648.628 498.834V376.243C648.628 374.748 648.982 373.267 649.67 371.886C650.357 370.504 651.365 369.25 652.635 368.193C653.904 367.136 655.412 366.298 657.071 365.726C658.729 365.155 660.507 364.861 662.302 364.862C664.097 364.861 665.875 365.155 667.534 365.726C669.193 366.298 670.7 367.136 671.97 368.193C673.24 369.25 674.247 370.504 674.935 371.886C675.622 373.267 675.976 374.748 675.976 376.243V498.834C675.976 500.329 675.621 501.809 674.934 503.19C674.246 504.572 673.239 505.826 671.969 506.883C670.699 507.94 669.192 508.778 667.533 509.35C665.875 509.922 664.097 510.216 662.302 510.215Z" fill="#CE2620"/>
<path d="M759.25 344.448C759.25 406.426 715.842 437.537 662.297 437.537C608.751 437.537 565.343 406.426 565.343 344.448C565.343 282.469 624.734 40.7648 662.297 40.7648C699.86 40.7648 759.25 282.469 759.25 344.448Z" fill="#F64740"/>
<path d="M662.297 40.7648C654.858 40.7648 646.556 50.3491 638.037 66.036C668.681 104.694 708.327 295.693 708.327 348.744C708.327 400.576 680.657 429.757 643.918 436.166C649.878 437.024 656.001 437.537 662.297 437.537C715.843 437.537 759.251 406.426 759.251 344.448C759.251 282.469 699.86 40.7648 662.297 40.7648Z" fill="#EC5F59"/>
<path d="M66.2514 341.085C66.2514 395.721 27.9876 423.146 -19.2156 423.146C-66.4188 423.146 -104.683 395.721 -104.683 341.085C-104.683 286.45 -52.3268 73.3839 -19.2156 73.3839C13.8956 73.3839 66.2514 286.45 66.2514 341.085Z" fill="#F64740"/>
<path d="M-19.2133 73.3839C-25.7702 73.3839 -33.0882 81.8305 -40.5986 95.661C-13.5853 129.738 21.3616 298.106 21.3616 344.874C21.3616 390.563 -3.03008 416.285 -35.4131 421.937C-30.1588 422.695 -24.7616 423.146 -19.2106 423.146C27.9926 423.146 66.2564 395.723 66.2564 341.085C66.2564 286.448 13.8979 73.3839 -19.2133 73.3839Z" fill="#EC5F59"/>
<path d="M547.021 780.812C547.021 784.859 548.952 788.741 552.388 791.603C555.824 794.465 560.484 796.073 565.343 796.073C570.202 796.073 574.862 794.465 578.298 791.603C581.734 788.741 583.664 784.859 583.664 780.812C583.664 776.764 581.734 772.882 578.298 770.02C574.862 767.158 570.202 765.551 565.343 765.551C560.484 765.551 555.824 767.158 552.388 770.02C548.952 772.882 547.021 776.764 547.021 780.812Z" fill="#E84842"/>
<path d="M66.251 616.972C66.251 619.229 67.3271 621.393 69.2427 622.989C71.1583 624.584 73.7564 625.481 76.4655 625.481C79.1745 625.481 81.7726 624.584 83.6882 622.989C85.6038 621.393 86.6799 619.229 86.6799 616.972C86.6799 614.716 85.6038 612.551 83.6882 610.956C81.7726 609.36 79.1745 608.464 76.4655 608.464C73.7564 608.464 71.1583 609.36 69.2427 610.956C67.3271 612.551 66.251 614.716 66.251 616.972Z" fill="#FE736D"/>
<path d="M205.536 625.478C205.536 627.735 206.612 629.899 208.528 631.495C210.443 633.09 213.042 633.987 215.751 633.987C218.46 633.987 221.058 633.09 222.973 631.495C224.889 629.899 225.965 627.735 225.965 625.478C225.965 623.222 224.889 621.058 222.973 619.462C221.058 617.866 218.46 616.97 215.751 616.97C213.042 616.97 210.443 617.866 208.528 619.462C206.612 621.058 205.536 623.222 205.536 625.478Z" fill="#FC5C56"/>
<path d="M149.624 587.395C149.624 589.652 150.7 591.816 152.616 593.412C154.531 595.007 157.129 595.904 159.839 595.904C162.548 595.904 165.146 595.007 167.061 593.412C168.977 591.816 170.053 589.652 170.053 587.395C170.053 585.139 168.977 582.974 167.061 581.379C165.146 579.783 162.548 578.887 159.839 578.887C157.129 578.887 154.531 579.783 152.616 581.379C150.7 582.974 149.624 585.139 149.624 587.395Z" fill="#FC5C56"/>
<path d="M385.95 610.219C385.95 612.476 387.026 614.64 388.942 616.236C390.858 617.831 393.456 618.728 396.165 618.728C398.874 618.728 401.472 617.831 403.387 616.236C405.303 614.64 406.379 612.476 406.379 610.219C406.379 607.963 405.303 605.799 403.387 604.203C401.472 602.607 398.874 601.711 396.165 601.711C393.456 601.711 390.858 602.607 388.942 604.203C387.026 605.799 385.95 607.963 385.95 610.219Z" fill="#FC5C56"/>
<path d="M320.483 625.478C320.483 626.596 320.748 627.702 321.261 628.734C321.774 629.767 322.527 630.705 323.475 631.495C324.424 632.285 325.55 632.911 326.789 633.339C328.028 633.767 329.356 633.987 330.698 633.987C332.039 633.987 333.368 633.767 334.607 633.339C335.846 632.911 336.972 632.285 337.921 631.495C338.869 630.705 339.622 629.767 340.135 628.734C340.648 627.702 340.912 626.596 340.912 625.478C340.912 624.361 340.648 623.255 340.135 622.222C339.622 621.19 338.869 620.252 337.921 619.462C336.972 618.672 335.846 618.045 334.607 617.618C333.368 617.19 332.039 616.97 330.698 616.97C329.356 616.97 328.028 617.19 326.789 617.618C325.55 618.045 324.424 618.672 323.475 619.462C322.527 620.252 321.774 621.19 321.261 622.222C320.748 623.255 320.483 624.361 320.483 625.478Z" fill="#FE736D"/>
<path d="M464.438 625.478C464.437 626.596 464.702 627.702 465.215 628.734C465.728 629.767 466.481 630.705 467.429 631.495C468.378 632.285 469.504 632.911 470.743 633.339C471.982 633.767 473.311 633.987 474.652 633.987C475.993 633.987 477.322 633.767 478.561 633.339C479.8 632.911 480.926 632.285 481.875 631.495C482.823 630.705 483.576 629.767 484.089 628.734C484.602 627.702 484.866 626.596 484.866 625.478C484.866 624.361 484.602 623.255 484.089 622.222C483.576 621.19 482.823 620.252 481.875 619.462C480.926 618.672 479.8 618.045 478.561 617.618C477.322 617.19 475.993 616.97 474.652 616.97C473.311 616.97 471.982 617.19 470.743 617.618C469.504 618.045 468.378 618.672 467.429 619.462C466.481 620.252 465.728 621.19 465.215 622.222C464.702 623.255 464.437 624.361 464.438 625.478Z" fill="#FE736D"/>
<path d="M638.414 649.168C638.414 651.424 639.49 653.589 641.406 655.184C643.321 656.78 645.92 657.676 648.629 657.676C651.338 657.676 653.936 656.78 655.851 655.184C657.767 653.589 658.843 651.424 658.843 649.168C658.843 646.911 657.767 644.747 655.851 643.151C653.936 641.556 651.338 640.659 648.629 640.659C645.92 640.659 643.321 641.556 641.406 643.151C639.49 644.747 638.414 646.911 638.414 649.168Z" fill="#FC5C56"/>
<path d="M680.324 782.996C680.324 787.043 682.255 790.925 685.69 793.787C689.126 796.649 693.786 798.257 698.645 798.257C703.504 798.257 708.165 796.649 711.6 793.787C715.036 790.925 716.967 787.043 716.967 782.996C716.967 778.948 715.036 775.066 711.6 772.204C708.165 769.342 703.504 767.734 698.645 767.734C693.786 767.734 689.126 769.342 685.69 772.204C682.255 775.066 680.324 778.948 680.324 782.996Z" fill="#EE5B55"/>
</g>
</g>
<defs>
<clipPath id="clip0_56_641">
<rect width="754" height="808" fill="white"/>
</clipPath>
<clipPath id="clip1_56_641">
<rect width="1407" height="1172" fill="white" transform="translate(-327 -125)"/>
</clipPath>
</defs>
</svg>
